<svg width="202" height="60" viewBox="0 0 202 60" fill="none" xmlns="http://www.w3.org/2000/svg">
<g clip-path="url(#clip0_3506_463)">
<path d="M16.9874 44.3576C14.369 44.3576 11.7506 44.3514 9.13218 44.37C8.77231 44.37 8.56755 44.2583 8.39382 43.9605C6.79299 41.1683 5.18596 38.3824 3.57893 35.5964C2.61099 33.9212 1.64304 32.2521 0.656487 30.5892C0.402092 30.1673 0.433115 29.8074 0.668896 29.3979C1.94708 27.2138 3.22526 25.0235 4.49103 22.8333C5.80023 20.5685 7.09703 18.2914 8.40623 16.0266C8.55514 15.766 8.74749 15.6357 9.10116 15.6357C14.3566 15.6544 19.612 15.6544 24.8612 15.6357C25.2397 15.6357 25.4135 15.7847 25.5748 16.0701C27.4548 19.3524 29.3411 22.6285 31.2273 25.9046C31.9036 27.0773 32.5862 28.2438 33.2935 29.3917C33.5603 29.826 33.5355 30.1921 33.2811 30.6264C32.2511 32.3638 31.2521 34.1197 30.2346 35.8632C29.1487 37.7247 28.0567 39.5861 26.9709 41.4475C26.4993 42.2604 26.0277 43.0794 25.581 43.9046C25.4073 44.2211 25.2211 44.37 24.8302 44.3638C22.2118 44.3452 19.5934 44.3514 16.975 44.3514" fill="#3A6CB4"/>
<path d="M45.2631 28.7218C42.6447 28.7218 40.0263 28.7156 37.4079 28.728C37.048 28.728 36.837 28.6225 36.6633 28.3185C35.0625 25.5202 33.4554 22.7218 31.8422 19.9297C30.8743 18.2544 29.9063 16.5853 28.9136 14.9286C28.6654 14.5129 28.6964 14.1717 28.926 13.7746C30.3531 11.3299 31.774 8.88521 33.1886 6.43433C34.3551 4.41779 35.5092 2.40124 36.6695 0.384695C36.8308 0.11789 37.0294 0 37.3769 0C42.6137 0.0186143 47.8567 0.0186143 53.0935 0C53.4534 0 53.6643 0.105481 53.8381 0.409514C55.4389 3.20786 57.0459 6.00621 58.6592 8.79835C59.6271 10.4674 60.5951 12.1427 61.5878 13.7994C61.836 14.2089 61.805 14.5564 61.5754 14.9535C60.1483 17.3981 58.7336 19.8428 57.3127 22.2937C56.1462 24.3102 54.9922 26.3268 53.8319 28.3433C53.6768 28.6163 53.472 28.7342 53.1245 28.728C50.5061 28.7094 47.8877 28.7156 45.2693 28.7156" fill="#639CD4"/>
<path d="M45.3001 31.3216C47.8999 31.3216 50.5059 31.334 53.1057 31.3092C53.4594 31.3092 53.6517 31.4333 53.813 31.7063C55.4201 34.4984 57.0209 37.2905 58.6341 40.0765C59.6021 41.758 60.5762 43.4333 61.569 45.0961C61.7985 45.487 61.7985 45.8159 61.569 46.2068C59.751 49.3154 57.9516 52.4364 56.146 55.5511C55.3642 56.8976 54.5886 58.2502 53.813 59.6029C53.6579 59.8759 53.4594 60 53.1119 59.9938C47.8751 59.9751 42.6321 59.9751 37.3952 59.9938C37.0416 59.9938 36.8492 59.8697 36.6879 59.5967C35.0809 56.8045 33.48 54.0124 31.8668 51.2202C30.8989 49.5387 29.9247 47.8635 28.9319 46.2006C28.7024 45.8097 28.7024 45.4808 28.9319 45.0899C30.7499 41.9813 32.5493 38.8603 34.3549 35.7456C35.1367 34.3991 35.9123 33.0465 36.6879 31.6939C36.843 31.4208 37.0416 31.2968 37.389 31.303C40.0261 31.3216 42.6631 31.3154 45.3001 31.3154" fill="#88D5F3"/>
<path d="M78.2477 50.9596C78.2477 52.7342 77.0377 53.9131 74.9529 53.9131C72.8681 53.9131 71.6582 52.7342 71.6582 50.9596V46.1943H73.5817V50.7486C73.5817 51.6421 74.0532 52.1571 74.9467 52.1571C75.8402 52.1571 76.3056 51.6421 76.3056 50.7486V46.1943H78.2415V50.9596H78.2477Z" fill="#B60F3E"/>
<path d="M85.7977 53.8755L81.9197 50.4567L81.3117 49.9541V53.77H79.4316V46.0947H79.5185L83.3655 49.5011C83.5764 49.6687 83.775 49.861 83.9859 50.0161V46.2002H85.8784V53.8755H85.8039H85.7977Z" fill="#B60F3E"/>
<path d="M89.0446 46.1943H87.1211V53.7641H89.0446V46.1943Z" fill="#B60F3E"/>
<path d="M93.6227 47.8138V53.7703H91.6868V47.8138H89.6641V46.1943H95.6392V47.8138H93.6227Z" fill="#B60F3E"/>
<path d="M101.446 46.0518C103.779 46.0518 105.454 47.8077 105.454 49.9856C105.454 52.1634 103.791 53.9194 101.446 53.9194C99.1004 53.9194 97.4375 52.1821 97.4375 49.9856C97.4375 47.7891 99.1128 46.0518 101.446 46.0518ZM101.446 52.1572C102.674 52.1572 103.506 51.1583 103.506 49.9794C103.506 48.8005 102.674 47.8015 101.446 47.8015C100.217 47.8015 99.3734 48.8129 99.3734 49.9794C99.3734 51.1459 100.217 52.1572 101.446 52.1572Z" fill="#B60F3E"/>
<path d="M108.203 47.8138V49.2657H110.548V50.8479H108.203V53.7703H106.279V46.1943H110.989V47.8138H108.203Z" fill="#B60F3E"/>
<path d="M65.9375 46.0889H65.8444L62.0781 53.7704H64.0823L65.9065 50.1096L67.6686 53.6525L67.7183 53.7704H69.7038L65.9375 46.0889Z" fill="#B60F3E"/>
<path d="M165.182 46.1885L167.044 49.9734L168.818 46.2071H168.899C169.507 47.5349 170.605 49.961 170.605 49.961L172.187 46.1885H174.16L170.717 53.8203H170.624L168.855 50.0478C168.737 50.296 167.087 53.8203 167.087 53.8203H166.994L163.209 46.1885H165.182Z" fill="#B60F3E"/>
<path d="M177.896 46.0459C180.216 46.0459 181.879 47.7894 181.879 49.9549C181.879 52.1204 180.229 53.8639 177.896 53.8639C175.563 53.8639 173.912 52.139 173.912 49.9549C173.912 47.7708 175.575 46.0459 177.896 46.0459ZM177.896 52.1204C179.118 52.1204 179.943 51.1276 179.943 49.9549C179.943 48.7822 179.118 47.7894 177.896 47.7894C176.673 47.7894 175.836 48.7946 175.836 49.9549C175.836 51.1152 176.673 52.1204 177.896 52.1204Z" fill="#B60F3E"/>
<path d="M185.446 46.1885C187.245 46.1885 188.486 47.0571 188.486 48.751C188.486 49.8369 187.934 50.5628 187.109 50.9289L188.623 53.7211H186.625L185.409 51.2453H184.571V53.7211H182.697V46.1947H185.44L185.446 46.1885ZM184.577 47.8017V49.7128H185.539C186.116 49.7128 186.55 49.4398 186.55 48.751C186.55 48.0623 186.104 47.8017 185.527 47.8017H184.577Z" fill="#B60F3E"/>
<path d="M189.367 53.7211V46.1885H191.34V52.1078H194.039V53.7211H189.367Z" fill="#B60F3E"/>
<path d="M194.729 53.7207V46.1943H197.248C199.885 46.1943 201.517 47.7828 201.517 49.9606C201.517 52.1385 199.885 53.7269 197.26 53.7269H194.729V53.7207ZM196.646 47.8014V52.1075H197.241C198.768 52.1075 199.581 51.1271 199.581 49.9544C199.581 48.7817 198.762 47.8014 197.229 47.8014H196.646Z" fill="#B60F3E"/>
<path d="M117.74 49.4954L114.067 46.1572H114.023V53.7891H115.841V49.9607L116.332 50.3703C116.803 50.817 117.262 51.2699 117.734 51.7105C118.205 51.2699 118.665 50.8232 119.136 50.3703L119.614 49.9607V53.7891H121.457V46.1572H121.401L117.728 49.4954H117.74Z" fill="#B60F3E"/>
<path d="M132.422 46.1136H129.996V53.7889H132.435C135.059 53.7889 136.691 52.1819 136.691 49.9482C136.691 47.7145 135.059 46.1074 132.422 46.1074M132.416 52.1509H131.82V47.7579H132.404C133.942 47.7579 134.755 48.7631 134.755 49.9544C134.755 51.1457 133.942 52.1509 132.41 52.1509H132.416Z" fill="#B60F3E"/>
<path d="M139.233 46.1143H137.26V53.7895H139.233V46.1143Z" fill="#B60F3E"/>
<path d="M149.626 46.1143C147.504 46.1143 145.785 47.833 145.785 49.955C145.785 52.077 147.504 53.7957 149.626 53.7957C151.748 53.7957 153.467 52.077 153.467 49.955C153.467 47.833 151.748 46.1143 149.626 46.1143ZM149.626 51.9467C148.528 51.9467 147.634 51.0532 147.634 49.955C147.634 48.8568 148.528 47.9633 149.626 47.9633C150.724 47.9633 151.618 48.8568 151.618 49.955C151.618 51.0532 150.724 51.9467 149.626 51.9467Z" fill="#B60F3E"/>
<path d="M144.098 49.5455L142.677 48.9126L142.106 48.652C141.982 48.5962 141.901 48.4721 141.901 48.3356C141.901 48.1432 142.056 47.9881 142.249 47.9881H145.401V46.1143H142.249C141.02 46.1143 140.027 47.1132 140.027 48.3356C140.027 49.2042 140.542 49.9984 141.33 50.3583L142.745 50.9974L143.322 51.2518C143.446 51.3076 143.527 51.4317 143.527 51.5682C143.527 51.7606 143.372 51.9157 143.179 51.9157H140.027V53.7895H143.179C144.408 53.7895 145.401 52.7906 145.401 51.5682C145.401 50.6996 144.886 49.9054 144.098 49.5455Z" fill="#B60F3E"/>
<path d="M125.731 46.1572H125.632L121.891 53.7953H123.889L125.694 50.1593L127.45 53.6774L127.5 53.7953H129.473L125.731 46.1572Z" fill="#B60F3E"/>
<path d="M156.024 50.3456V53.7892H154.051V46.0146H154.156L158.748 49.5576V46.1201H160.733V53.8947H160.634L156.024 50.3456Z" fill="#B60F3E"/>
<path d="M134.307 37.0678C135.815 32.4576 137.292 27.953 138.762 23.4483C139.172 22.2074 139.587 20.9664 139.978 19.7255C140.065 19.44 140.208 19.347 140.5 19.3532C141.666 19.3656 142.839 19.3718 144.011 19.3532C144.347 19.3532 144.415 19.4773 144.415 19.7813C144.409 26.6251 144.409 33.469 144.415 40.3128C144.415 40.6355 144.328 40.7348 143.999 40.7286C143.335 40.7037 142.671 40.7099 142.007 40.7286C141.759 40.7286 141.66 40.6541 141.678 40.3997C141.697 40.1205 141.678 39.8413 141.678 39.5621V22.8961C141.468 23.0512 141.461 23.256 141.405 23.4235C139.513 29.0388 137.621 34.6541 135.741 40.2694C135.629 40.5983 135.505 40.7534 135.132 40.7224C134.593 40.6851 134.047 40.6913 133.507 40.7224C133.135 40.7472 132.973 40.6231 132.849 40.257C131.335 35.6903 129.803 31.136 128.276 26.5755C127.892 25.4276 127.507 24.2797 127.116 23.1381C127.072 23.1381 127.023 23.1505 126.979 23.1505V23.7337C126.979 29.2001 126.973 34.6665 126.992 40.1267C126.992 40.6169 126.855 40.7534 126.384 40.7224C125.813 40.6851 125.23 40.6975 124.659 40.7224C124.355 40.7348 124.243 40.6293 124.28 40.3377C124.293 40.2694 124.28 40.1949 124.28 40.1267C124.28 33.4069 124.28 26.681 124.274 19.9612C124.274 19.5021 124.361 19.3221 124.864 19.347C125.925 19.3904 126.992 19.378 128.059 19.347C128.45 19.3346 128.593 19.4773 128.704 19.8309C130.485 25.3718 132.272 30.9064 134.065 36.4473C134.121 36.6272 134.196 36.8009 134.301 37.074" fill="#3A6CB4"/>
<path d="M79.9161 30.0743C79.9161 33.4435 79.9099 36.8127 79.9285 40.1819C79.9285 40.6348 79.7982 40.7403 79.3763 40.7155C78.7682 40.6783 78.1539 40.6783 77.5458 40.7155C77.1425 40.7403 77.0184 40.6224 77.0184 40.2005C77.0371 37.216 77.0184 34.2315 77.0371 31.2408C77.0371 30.7755 76.9378 30.6265 76.4414 30.6328C73.1405 30.6576 69.8395 30.6576 66.5386 30.6328C66.0298 30.6328 65.9554 30.7941 65.9554 31.247C65.974 34.2129 65.9554 37.185 65.9802 40.1509C65.9802 40.6348 65.8375 40.7465 65.3907 40.7155C64.8323 40.6783 64.2677 40.6596 63.7155 40.7155C63.1446 40.7775 63.0764 40.5418 63.0764 40.0454C63.095 34.8272 63.0888 29.6028 63.0888 24.3846C63.0888 22.883 63.1074 21.3815 63.0764 19.8799C63.0702 19.4332 63.2191 19.3153 63.641 19.3339C64.2491 19.3649 64.8633 19.3649 65.4714 19.3339C65.8623 19.3153 65.974 19.4332 65.9678 19.8303C65.9492 22.399 65.9678 24.9616 65.943 27.5304C65.943 28.0268 66.0919 28.126 66.5572 28.126C69.8395 28.1074 73.1219 28.1012 76.4042 28.126C76.9316 28.126 77.0309 27.9709 77.0247 27.4807C76.9998 24.9492 77.0247 22.4177 76.9998 19.8861C76.9998 19.4456 77.1301 19.3153 77.5583 19.3401C78.1663 19.3773 78.7806 19.3773 79.3887 19.3401C79.8044 19.3153 79.9099 19.4456 79.9099 19.8613C79.8912 23.2677 79.9037 26.6741 79.9037 30.0743" fill="#3A6CB4"/>
<path d="M182.542 38.9714C181.921 39.5857 181.369 40.0821 180.711 40.4543C178.415 41.7511 174.184 41.354 172.608 37.5629C171.392 34.6343 171.373 31.6374 172.645 28.7087C174.587 24.2537 179.576 23.9559 182.449 26.3137C182.622 26.1834 182.529 25.9911 182.535 25.8421C182.542 23.8318 182.548 21.8277 182.535 19.8173C182.535 19.4574 182.622 19.3209 183.001 19.3396C183.646 19.3706 184.291 19.3644 184.937 19.3396C185.266 19.3271 185.383 19.445 185.346 19.7615C185.334 19.8297 185.346 19.898 185.346 19.9724C185.346 26.6922 185.346 33.4181 185.359 40.1379C185.359 40.5846 185.278 40.7584 184.794 40.7211C184.167 40.6715 183.541 40.6963 182.908 40.7149C182.641 40.7149 182.535 40.6405 182.548 40.3613C182.566 39.9456 182.548 39.5236 182.548 38.9714M182.542 32.5867C182.542 31.8545 182.442 31.1038 182.56 30.3964C182.796 29.0252 182.082 28.293 180.997 27.7408C180.935 27.7098 180.879 27.6663 180.817 27.6415C178.62 26.5867 175.946 26.7294 174.984 30.1482C174.575 31.6126 174.556 33.1079 174.705 34.6095C174.81 35.6581 175.059 36.6694 175.698 37.5443C176.467 38.5991 177.51 39.0272 178.794 38.8721C180.432 38.6736 181.512 37.6498 182.436 36.3902C182.56 36.2165 182.535 36.0241 182.535 35.838C182.535 34.7584 182.535 33.6787 182.535 32.5929L182.542 32.5867Z" fill="#3A6CB4"/>
<path d="M114.532 33.6736C112.751 33.6736 110.971 33.6798 109.19 33.6674C108.83 33.6674 108.712 33.7295 108.774 34.1328C108.942 35.3117 109.252 36.4223 110.009 37.3655C111.455 39.1524 114.47 39.4378 116.239 37.9673C116.729 37.564 117.064 37.0614 117.151 36.4285C117.188 36.1617 117.3 36.0935 117.554 36.0997C118.218 36.1183 118.882 36.0997 119.546 36.0997C119.943 36.0997 120.092 36.3024 119.992 36.7077C119.62 38.2093 118.745 39.3386 117.411 40.1142C114.656 41.7212 110.642 41.3799 108.284 39.3199C107.068 38.2589 106.392 36.8753 106.075 35.3117C105.641 33.14 105.709 30.9994 106.621 28.9518C107.719 26.4823 109.68 25.1483 112.342 24.9125C114.631 24.7139 116.729 25.2227 118.361 26.9725C119.688 28.3872 120.203 30.1493 120.34 32.0356C120.377 32.5568 120.582 33.2269 120.284 33.5619C119.98 33.9032 119.297 33.6674 118.782 33.6674C117.368 33.686 115.953 33.6674 114.538 33.6674M113.13 31.4709H116.325C117.124 31.4709 117.409 31.0862 117.182 30.3168C116.456 27.8846 114.402 26.6374 112.044 27.1834C110.059 27.6488 109.091 29.5164 108.818 31.1607C108.762 31.5082 108.998 31.4647 109.202 31.4647C110.512 31.4647 111.821 31.4647 113.13 31.4647V31.4709Z" fill="#3A6CB4"/>
<path d="M189.859 36.0991C189.909 36.0991 189.965 36.0991 190.014 36.0991C190.381 36.0991 190.796 35.9999 191.1 36.1364C191.41 36.2729 191.28 36.7506 191.392 37.0671C191.646 37.793 192.149 38.277 192.856 38.5314C194.227 39.0216 195.63 39.065 197.001 38.5686C198.155 38.1529 198.72 37.0919 198.503 35.9626C198.385 35.3421 197.95 35.0567 197.435 34.852C196.287 34.3866 195.065 34.1508 193.88 33.8034C193.092 33.5738 192.304 33.3628 191.528 33.1022C190.089 32.6183 189.053 31.7434 188.867 30.1364C188.668 28.4238 189.171 27.003 190.623 25.9854C191.466 25.3897 192.422 25.0671 193.446 24.9616C195.059 24.7941 196.654 24.8623 198.192 25.4394C199.719 26.0102 200.594 27.1146 200.78 28.7527C200.823 29.125 200.755 29.2925 200.327 29.2677C199.7 29.2305 199.073 29.2615 198.44 29.2553C198.279 29.2553 198.087 29.3111 198.043 29.0443C197.832 27.7475 196.902 27.2884 195.748 27.1395C194.898 27.0216 194.041 27.0402 193.21 27.3008C192.893 27.4001 192.596 27.5366 192.323 27.7351C191.764 28.1384 191.547 28.6968 191.597 29.3732C191.64 30.0309 192.081 30.3473 192.627 30.5645C193.83 31.0422 195.096 31.2904 196.343 31.6069C197.169 31.8178 198 32.035 198.782 32.3763C201.543 33.5676 202.232 37.0422 200.147 39.2263C199.235 40.1881 198.093 40.7217 196.815 40.9512C194.997 41.2801 193.191 41.1746 191.46 40.5045C189.593 39.7785 188.687 38.3204 188.469 36.3783C188.445 36.1612 188.519 36.0991 188.718 36.1053C189.102 36.1115 189.487 36.1053 189.872 36.1053" fill="#3A6CB4"/>
<path d="M158.474 27.0902C158.642 26.8979 158.797 26.6931 158.977 26.5132C160.708 24.8317 163.401 24.3663 165.585 25.3901C167.235 26.1595 167.887 27.599 168.092 29.2929C168.296 30.962 168.166 32.6373 168.185 34.3126C168.203 36.2857 168.178 38.2588 168.197 40.2319C168.197 40.6228 168.098 40.7469 167.701 40.7283C167.074 40.6911 166.441 40.6973 165.814 40.7283C165.43 40.7469 165.362 40.6104 165.362 40.2567C165.374 37.0799 165.368 33.9031 165.368 30.7262C165.368 30.0747 165.306 29.4356 165.101 28.8152C164.691 27.5866 163.482 26.9723 162.005 27.2391C160.509 27.5059 159.436 28.4243 158.456 29.4977C158.288 29.6776 158.338 29.8886 158.338 30.0933C158.338 33.3943 158.338 36.689 158.338 39.9899C158.338 40.478 158.085 40.7221 157.581 40.7221C157.041 40.7221 156.501 40.7097 155.955 40.7221C155.645 40.7345 155.533 40.6538 155.533 40.3188C155.546 35.4294 155.546 30.5463 155.533 25.6569C155.533 25.3281 155.645 25.235 155.955 25.2412C156.6 25.2598 157.246 25.2598 157.891 25.2412C158.22 25.235 158.369 25.3219 158.338 25.6817C158.307 26.1223 158.332 26.569 158.332 27.0158C158.375 27.0406 158.418 27.0654 158.462 27.0902" fill="#3A6CB4"/>
<path d="M96.5142 37.2654C97.1905 35.286 97.8172 33.437 98.4439 31.5942C99.114 29.6335 99.7903 27.6728 100.436 25.6997C100.554 25.3336 100.733 25.2157 101.106 25.2343C101.77 25.2654 102.434 25.2529 103.097 25.2343C103.439 25.2281 103.581 25.284 103.433 25.6749C101.571 30.5766 99.7221 35.4846 97.8793 40.3988C97.7924 40.6345 97.6807 40.7214 97.4263 40.7152C96.8679 40.6966 96.3095 40.6842 95.751 40.7152C95.3725 40.74 95.2112 40.6035 95.0809 40.2498C93.8462 36.9365 92.5928 33.6294 91.3457 30.316C90.7624 28.7648 90.1916 27.2137 89.5835 25.6749C89.4222 25.2592 89.5649 25.2219 89.9248 25.2343C90.5887 25.2529 91.2526 25.2654 91.9165 25.2343C92.3198 25.2157 92.4873 25.3584 92.6114 25.7369C93.6662 28.9138 94.7459 32.0782 95.8193 35.2488C96.0302 35.8755 96.2474 36.496 96.508 37.2654" fill="#3A6CB4"/>
<path d="M151.377 33.028C151.377 35.4354 151.371 37.8491 151.384 40.2565C151.384 40.6226 151.291 40.7343 150.918 40.7219C150.292 40.6908 149.659 40.6908 149.032 40.7219C148.678 40.7405 148.598 40.604 148.598 40.2751C148.61 35.423 148.61 30.5647 148.598 25.7126C148.598 25.3713 148.703 25.2534 149.044 25.2658C149.64 25.2906 150.236 25.2968 150.825 25.2658C151.253 25.241 151.384 25.3589 151.384 25.8056C151.359 28.2131 151.371 30.6267 151.371 33.0342" fill="#3A6CB4"/>
<path d="M151.321 21.4001C151.321 21.8655 151.507 22.4921 151.271 22.7651C150.998 23.0878 150.359 22.852 149.875 22.8706C149.46 22.883 148.907 23.0071 148.665 22.7962C148.374 22.5418 148.585 21.9771 148.566 21.5428C148.548 21.0899 148.566 20.6369 148.566 20.184C148.566 19.942 148.653 19.8427 148.907 19.8489C149.621 19.8613 150.341 19.8613 151.054 19.8489C151.334 19.8489 151.365 19.9792 151.365 20.2026C151.352 20.6059 151.365 21.003 151.365 21.4063H151.334L151.321 21.4001Z" fill="#3A6CB4"/>
<path d="M87.2135 33.0089C87.2135 35.4163 87.2073 37.8238 87.226 40.2312C87.226 40.6221 87.1329 40.7462 86.7358 40.7214C86.1277 40.6841 85.5134 40.6903 84.9054 40.7214C84.5641 40.7338 84.4648 40.6283 84.4648 40.287C84.4835 38.9468 84.471 37.6004 84.471 36.2602C84.471 32.7731 84.4773 29.2798 84.4648 25.7927C84.4648 25.3894 84.5579 25.2405 84.986 25.2653C85.5755 25.3026 86.1711 25.2963 86.7668 25.2653C87.1453 25.2467 87.226 25.3832 87.226 25.7369C87.2135 28.1629 87.2197 30.589 87.2197 33.0089" fill="#3A6CB4"/>
<path d="M84.4575 21.2823C84.4947 20.879 84.2527 20.2586 84.5444 19.9545C84.8422 19.6443 85.4689 19.8615 85.9467 19.8553C87.1938 19.8428 87.2062 19.8553 87.1876 21.0776C87.1814 21.6608 87.442 22.4426 87.0759 22.7715C86.7533 23.0631 85.9901 22.8646 85.413 22.8646C84.4451 22.8646 84.4451 22.8646 84.4451 21.878V21.2761L84.4575 21.2823Z" fill="#3A6CB4"/>
</g>
<defs>
<clipPath id="clip0_3506_463">
<rect width="201.034" height="60" fill="white" transform="translate(0.482422)"/>
</clipPath>
</defs>
</svg>
