<svg width="16" height="29" viewBox="0 0 16 29" fill="none" xmlns="http://www.w3.org/2000/svg">
<path d="M14.9769 14.2073L14.9771 14.2074C15.0572 14.2866 15.1004 14.3919 15.1004 14.4997C15.1004 14.6073 15.0572 14.7126 14.9771 14.7918L14.9769 14.792L1.64366 27.9741L1.64356 27.9742C1.5595 28.0573 1.44901 28.1004 1.3333 28.1004C1.21755 28.1004 1.10707 28.0573 1.02314 27.9743L1.02303 27.9742C0.858507 27.8115 0.858492 27.5522 1.02295 27.3895C8.19902 20.2949 8.1993 8.70514 1.02303 1.61059C0.858491 1.44792 0.858492 1.18853 1.02299 1.02587C1.19326 0.857514 1.47343 0.85759 1.64352 1.02578L1.64359 1.02585L14.9769 14.2073Z" fill="white" stroke="white" stroke-width="1.79924"/>
</svg>
