<svg width="21" height="18" viewBox="0 0 21 18" fill="none" xmlns="http://www.w3.org/2000/svg">
<path d="M20.8125 9.05508C20.7452 9.10795 20.669 9.15202 20.6107 9.21371C17.6907 12.0778 14.7752 14.942 11.8598 17.8061C11.797 17.8678 11.7477 17.9427 11.6983 18C11.1511 17.4536 10.6308 16.9337 10.1195 16.4225C12.2007 14.378 14.3177 12.2982 16.4348 10.2228C16.4214 10.2007 16.4124 10.1743 16.3989 10.1523C10.2406 10.1523 6.16732 10.1523 0 10.1523C0 9.38115 0 8.64529 0 7.88739C6.16732 7.88739 10.2361 7.88739 16.4214 7.88739C14.2774 5.78556 12.1603 3.70575 10.0612 1.64357C10.6129 1.09278 11.1377 0.577234 11.7252 0C11.7521 0.04847 11.7835 0.136597 11.8463 0.198286C14.7663 3.07124 17.6907 5.93978 20.6107 8.80832C20.669 8.86561 20.7452 8.91408 20.8125 8.96695C20.8125 8.99339 20.8125 9.02423 20.8125 9.05508Z" fill="#134bd5"/>
</svg>
