<svg width="21" height="20" viewBox="0 0 21 20" fill="none" xmlns="http://www.w3.org/2000/svg">
<path d="M1 3.65804C1.13682 3.47527 1.22142 3.24758 1.4935 3.24027C2.58338 3.31912 3.80851 3.13896 4.88167 3.23922C5.24409 3.27317 5.41173 3.41939 5.47962 3.78703L5.45612 7.25511C5.29684 7.92251 4.33282 7.67863 4.33282 7.22534V4.8555C0.696589 8.77634 1.76767 15.1521 6.43319 17.7283C11.0303 20.2663 16.8452 17.9371 18.3952 12.9552C20.0094 7.76688 16.4541 2.67783 11.1285 2.1483C10.6794 2.10339 9.94304 2.29766 9.90336 1.59893C9.87046 1.02239 10.4345 0.987404 10.8684 1.00255C17.5649 1.2318 21.8481 8.40556 19.0287 14.4733C16.146 20.6762 7.72987 21.729 3.29307 16.546C0.303356 13.0533 0.338345 7.86506 3.23981 4.33484H1.39062C1.28357 4.33484 1.04439 4.02726 1 3.91811V3.65752V3.65804Z" fill="black" stroke="black" stroke-width="0.3"/>
<path d="M10.3598 4.34475C10.6455 4.29096 10.9327 4.50507 10.9943 4.7808L11.0079 10.1832L14.195 13.4016C14.6426 14.0487 13.9799 14.6633 13.3402 14.1526C12.2179 13.2565 11.2027 11.8423 10.0846 10.8986L9.92796 10.6386L9.90237 4.82885C9.89924 4.60795 10.1624 4.38235 10.3593 4.34475H10.3598Z" fill="black" stroke="black" stroke-width="0.5"/>
</svg>
