<svg width="120" height="120" viewBox="0 0 120 120" fill="none" xmlns="http://www.w3.org/2000/svg">
<circle cx="60" cy="60" r="60" fill="#D9D9D9"/>
<path d="M101.95 73.5132C101.73 75.1611 100.384 76.5113 98.7301 76.6574C94.2356 77.0551 89.1197 76.3781 84.5605 76.6112C82.8719 76.2339 83.5266 73.6981 84.5217 73.6981H98.8152C99.2831 70.7702 99.2517 67.0027 96.2406 65.4786C94.5279 64.6112 87.7566 62.3584 85.9681 62.2696C83.9761 62.1716 82.1875 63.2776 80.6432 63.372C78.7418 63.4885 78.3645 61.2154 80.0032 60.5051C74.3491 56.2696 75.3016 47.2437 81.9674 44.5674C89.9779 41.3528 97.489 49.5076 93.7215 57.2517C93.0667 58.5982 92.0439 59.5008 91.071 60.5939C95.5451 62.0144 100.6 62.917 101.725 68.2974L101.952 69.8233C101.841 70.9848 102.102 72.3886 101.952 73.515L101.95 73.5132ZM84.9416 46.8054C76.7036 47.6062 77.8226 60.4441 86.534 59.2863C93.9712 58.2986 92.9705 46.0249 84.9416 46.8054Z" fill="#134bd5"/>
<path d="M66.7231 60.7772C72.098 62.6915 78.7897 63.3999 80.286 70.001C80.667 71.6841 80.8908 76.8666 80.04 78.2575C79.2521 79.5485 77.4987 79.6705 77.1288 78.1261C76.9623 77.427 77.5227 76.9073 77.6097 76.1952C78.0813 72.2815 77.5912 67.9147 73.5961 66.1761C71.0936 65.0885 63.4383 62.501 60.9228 62.4325C58.1762 62.3586 50.3711 64.9665 47.6781 66.1761C45.6177 67.1009 44.0104 68.9708 43.72 71.2587C43.4481 73.4153 43.7219 75.4332 44.0289 77.4936C44.3359 79.554 41.8076 80.0404 40.9956 77.9412C40.3316 76.2211 40.6349 70.6613 41.3137 68.8524C43.5036 63.0263 49.4666 62.6878 54.5492 60.779C51.7601 58.702 49.7589 55.7944 49.5628 52.2081C48.8711 39.5053 66.2774 35.636 70.8125 47.1847C72.8618 52.4023 71.0844 57.4794 66.7213 60.779L66.7231 60.7772ZM60.2348 43.2988C49.6294 43.7759 50.2286 59.6619 60.7305 59.5028C71.5838 59.3382 71.188 42.8068 60.2348 43.2988Z" fill="#134bd5"/>
<path d="M36.7501 73.6983C37.9338 73.948 38.2223 76.2747 36.7112 76.6114L22.3641 76.6521C19.2365 76.1157 19.1718 73.0602 19.3142 70.4616C19.4307 68.3308 19.882 66.4998 21.2562 64.8389C23.522 62.0996 27.0436 61.776 30.2026 60.5941C26.6662 57.4535 25.3364 52.7815 27.7741 48.4776C31.3401 42.1816 40.6379 42.374 43.9468 48.7827C45.9813 52.7242 44.9326 57.8956 41.2704 60.4147C41.4961 60.8031 41.9233 60.7476 42.1083 61.3247C42.4375 62.3604 41.927 63.3814 40.8099 63.3851C39.9813 63.3869 38.5645 62.5805 37.4659 62.4659C34.4418 62.1496 27.6465 64.0916 24.9128 65.5472C21.9776 67.1101 22.0164 70.8296 22.4566 73.7001H36.7501V73.6983ZM35.1428 46.8056C27.1749 47.5731 28.0349 60.2963 36.7316 59.2828C44.3944 58.3894 43.3031 46.0195 35.1428 46.8056Z" fill="#134bd5"/>
</svg>
