<svg width="12" height="23" viewBox="0 0 12 23" fill="none" xmlns="http://www.w3.org/2000/svg">
<path d="M7.70597 22.9203C6.30874 22.9203 4.9115 22.9203 3.51426 22.9203C3.51426 22.8215 3.50015 22.7226 3.50015 22.6237C3.50015 19.3323 3.50015 16.0409 3.50015 12.7495C3.50015 12.6506 3.50015 12.5658 3.50015 12.4528C2.31462 12.4528 1.15731 12.4528 0 12.4528C0 11.0826 0 9.74059 0 8.37035C1.17142 8.37035 2.32873 8.37035 3.50015 8.37035C3.50015 8.25734 3.50015 8.17259 3.50015 8.10196C3.50015 7.24026 3.48604 6.37856 3.50015 5.53099C3.51426 4.98007 3.54249 4.42914 3.6554 3.89235C4.06469 1.78755 5.58895 0.374926 7.70597 0.0782761C8.73626 -0.0629859 9.75243 0.0217713 10.7827 0.0641499C11.1356 0.0782761 11.5025 0.134781 11.8553 0.177159C11.8553 1.39201 11.8553 2.59274 11.8553 3.80759C10.9521 3.82172 10.0488 3.80759 9.15967 3.84997C8.42576 3.87822 7.97413 4.27376 7.79066 4.95181C7.74832 5.12133 7.72009 5.30497 7.72009 5.47448C7.70597 6.39269 7.70597 7.31089 7.70597 8.22909C7.70597 8.27147 7.72009 8.32798 7.7342 8.39861C9.06087 8.39861 10.3875 8.39861 11.7283 8.39861C11.559 9.76885 11.3755 11.1108 11.2061 12.467C10.0347 12.467 8.8774 12.467 7.72009 12.467C7.72009 12.58 7.72009 12.6506 7.72009 12.7353C7.72009 16.0409 7.72009 19.3605 7.72009 22.6661C7.69186 22.7508 7.70597 22.8356 7.70597 22.9203Z" fill="white"/>
</svg>
