<svg width="40" height="23" viewBox="0 0 40 23" fill="none" xmlns="http://www.w3.org/2000/svg">
<path d="M1.12692 10.0001C0.979688 9.99734 0.833509 10.0341 0.696879 10.1082C0.56025 10.1823 0.435895 10.2923 0.331041 10.4319C0.226187 10.5714 0.142926 10.7377 0.0860955 10.9211C0.0292655 11.1044 0 11.3012 0 11.5C0 11.6988 0.0292655 11.8956 0.0860955 12.0789C0.142926 12.2623 0.226187 12.4286 0.331041 12.5681C0.435895 12.7077 0.56025 12.8177 0.696879 12.8918C0.833509 12.9659 0.979688 13.0027 1.12692 12.9998H38.8731C39.0203 13.0027 39.1665 12.9659 39.3031 12.8918C39.4397 12.8177 39.5641 12.7077 39.669 12.5681C39.7738 12.4286 39.8571 12.2623 39.9139 12.0789C39.9707 11.8956 40 11.6988 40 11.5C40 11.3012 39.9707 11.1044 39.9139 10.9211C39.8571 10.7377 39.7738 10.5714 39.669 10.4319C39.5641 10.2923 39.4397 10.1823 39.3031 10.1082C39.1665 10.0341 39.0203 9.99734 38.8731 10.0001H1.12692Z" fill="#111111"/>
<path d="M1.12692 0.000149999C0.979688 -0.00266079 0.833509 0.0340568 0.696879 0.10817C0.56025 0.182283 0.435895 0.292314 0.331041 0.431867C0.226187 0.571419 0.142926 0.737711 0.0860955 0.921078C0.0292655 1.10445 0 1.30123 0 1.5C0 1.69877 0.0292655 1.89555 0.0860955 2.07892C0.142926 2.26229 0.226187 2.42858 0.331041 2.56813C0.435895 2.70769 0.56025 2.81772 0.696879 2.89183C0.833509 2.96594 0.979688 3.00266 1.12692 2.99985H38.8731C39.0203 3.00266 39.1665 2.96594 39.3031 2.89183C39.4397 2.81772 39.5641 2.70769 39.669 2.56813C39.7738 2.42858 39.8571 2.26229 39.9139 2.07892C39.9707 1.89555 40 1.69877 40 1.5C40 1.30123 39.9707 1.10445 39.9139 0.921078C39.8571 0.737711 39.7738 0.571419 39.669 0.431867C39.5641 0.292314 39.4397 0.182283 39.3031 0.10817C39.1665 0.0340568 39.0203 -0.00266079 38.8731 0.000149999H1.12692Z" fill="#111111"/>
<path d="M1.12692 20.0001C0.979688 19.9973 0.833508 20.0341 0.696879 20.1082C0.560249 20.1823 0.435894 20.2923 0.33104 20.4319C0.226186 20.5714 0.142926 20.7377 0.0860955 20.9211C0.0292655 21.1044 0 21.3012 0 21.5C0 21.6988 0.0292655 21.8956 0.0860955 22.0789C0.142926 22.2623 0.226186 22.4286 0.33104 22.5681C0.435894 22.7077 0.560249 22.8177 0.696879 22.8918C0.833508 22.9659 0.979688 23.0027 1.12692 22.9998H38.8731C39.0203 23.0027 39.1665 22.9659 39.3031 22.8918C39.4397 22.8177 39.5641 22.7077 39.669 22.5681C39.7738 22.4286 39.8571 22.2623 39.9139 22.0789C39.9707 21.8956 40 21.6988 40 21.5C40 21.3012 39.9707 21.1044 39.9139 20.9211C39.8571 20.7377 39.7738 20.5714 39.669 20.4319C39.5641 20.2923 39.4397 20.1823 39.3031 20.1082C39.1665 20.0341 39.0203 19.9973 38.8731 20.0001H1.12692Z" fill="#111111"/>
</svg>
