<svg width="24" height="24" viewBox="0 0 24 24" fill="none" xmlns="http://www.w3.org/2000/svg">
<path d="M15.6491 11.8553C15.6491 12.6057 15.4266 13.3391 15.0097 13.963C14.5928 14.5869 14.0003 15.0731 13.3071 15.3603C12.6139 15.6474 11.8511 15.7225 11.1152 15.5762C10.3793 15.4298 9.70335 15.0685 9.17279 14.5379C8.64223 14.0073 8.28091 13.3314 8.13453 12.5955C7.98815 11.8596 8.06328 11.0968 8.35041 10.4036C8.63755 9.71035 9.1238 9.11785 9.74767 8.70099C10.3715 8.28413 11.105 8.06164 11.8553 8.06164C12.8611 8.06279 13.8254 8.46285 14.5366 9.17406C15.2478 9.88527 15.6479 10.8495 15.6491 11.8553ZM23.7107 6.63899V17.0717C23.7087 18.8319 23.0086 20.5194 21.764 21.764C20.5194 23.0086 18.8319 23.7087 17.0717 23.7107H6.63899C4.87884 23.7087 3.19134 23.0086 1.94672 21.764C0.702097 20.5194 0.00199345 18.8319 0 17.0717V6.63899C0.00199345 4.87884 0.702097 3.19134 1.94672 1.94672C3.19134 0.702097 4.87884 0.00199345 6.63899 0H17.0717C18.8319 0.00199345 20.5194 0.702097 21.764 1.94672C23.0086 3.19134 23.7087 4.87884 23.7107 6.63899ZM17.5459 11.8553C17.5459 10.7299 17.2122 9.62965 16.5869 8.69384C15.9616 7.75803 15.0728 7.02865 14.033 6.59795C12.9932 6.16724 11.849 6.05455 10.7452 6.27412C9.64131 6.49369 8.62735 7.03567 7.83151 7.83151C7.03567 8.62735 6.49369 9.64131 6.27412 10.7452C6.05455 11.849 6.16724 12.9932 6.59795 14.033C7.02865 15.0728 7.75803 15.9616 8.69384 16.5869C9.62965 17.2122 10.7299 17.5459 11.8553 17.5459C13.3641 17.5442 14.8105 16.9441 15.8773 15.8773C16.9441 14.8105 17.5442 13.3641 17.5459 11.8553ZM19.4428 5.69057C19.4428 5.40919 19.3593 5.13414 19.203 4.90019C19.0467 4.66624 18.8245 4.48389 18.5645 4.37622C18.3046 4.26854 18.0185 4.24037 17.7426 4.29526C17.4666 4.35015 17.2131 4.48565 17.0142 4.68461C16.8152 4.88357 16.6797 5.13706 16.6248 5.41302C16.5699 5.68899 16.5981 5.97503 16.7058 6.23499C16.8135 6.49494 16.9958 6.71713 17.2297 6.87345C17.4637 7.02977 17.7388 7.11321 18.0201 7.11321C18.3974 7.11321 18.7593 6.96332 19.0261 6.69653C19.2929 6.42973 19.4428 6.06787 19.4428 5.69057Z" fill="white"/>
</svg>
