<svg width="21" height="21" viewBox="0 0 21 21" fill="none" xmlns="http://www.w3.org/2000/svg">
<path d="M7.41992 20.9884C7.41992 16.4383 7.41992 11.9017 7.41992 7.3516C7.41992 7.2439 7.41992 7.13621 7.41992 7.00159C8.80649 7.00159 10.1796 7.00159 11.5931 7.00159C11.5931 7.62083 11.5931 8.24008 11.5931 8.87278C11.8892 8.52277 12.145 8.17277 12.4546 7.87661C13.222 7.14967 14.1508 6.77274 15.1874 6.67851C16.0893 6.59774 16.9913 6.66505 17.8663 6.93428C19.2932 7.39198 20.1817 8.38816 20.5586 9.80164C20.7471 10.5286 20.8144 11.2959 20.9356 12.0363C20.9625 12.1844 20.9759 12.3325 20.9894 12.494C20.9894 15.3075 20.9894 18.1345 20.9894 20.948C19.549 20.948 18.0951 20.948 16.6278 20.948C16.6278 20.8268 16.6278 20.7192 16.6278 20.6249C16.6278 18.3095 16.6412 16.0075 16.6143 13.6921C16.6143 13.1267 16.5336 12.5478 16.4124 11.9959C16.2509 11.2421 15.8066 10.7036 15.0124 10.5286C14.6893 10.4613 14.3527 10.4478 14.0162 10.4747C12.9258 10.5555 12.2123 11.1344 11.97 12.1978C11.8354 12.8036 11.7681 13.4498 11.7681 14.069C11.7412 16.3845 11.7546 18.6864 11.7546 21.0019C10.3277 20.9884 8.87379 20.9884 7.41992 20.9884Z" fill="white"/>
<path d="M0.351562 20.9878C0.351562 18.0396 0.351562 15.105 0.351562 12.1568C0.351562 10.5414 0.351562 8.91255 0.351562 7.29714C0.351562 7.2029 0.351562 7.10867 0.351562 7.00098C1.80544 7.00098 3.23239 7.00098 4.69972 7.00098C4.69972 7.10867 4.69972 7.21637 4.69972 7.32406C4.69972 11.8338 4.69972 16.3569 4.69972 20.8666C4.69972 20.907 4.69972 20.9474 4.69972 20.9878C3.25931 20.9878 1.80544 20.9878 0.351562 20.9878Z" fill="white"/>
<path d="M5.03518 2.54475C5.00826 3.9717 3.85054 5.08903 2.45052 5.04865C1.10434 5.02172 -0.0264525 3.83709 0.000471089 2.46398C0.0273947 1.09088 1.19857 -0.026447 2.57167 0.000476579C3.95824 0.0408619 5.0621 1.17165 5.03518 2.54475Z" fill="white"/>
</svg>
