<svg width="16" height="22" viewBox="0 0 16 22" fill="none" xmlns="http://www.w3.org/2000/svg">
<path d="M15.1101 6.9715V8.1892L14.88 9.49147C13.7157 13.9667 10.5385 17.5222 8.03664 21.2885L7.72527 21.5018H7.3895C7.16229 21.4059 7.07729 21.2788 6.93549 21.0949C5.65342 19.4325 4.27499 17.3909 3.13387 15.6187C0.683752 11.8137 -1.62457 7.16169 1.54043 2.98642C5.38708 -2.08886 13.3328 -0.373395 14.888 5.70289L15.1101 6.9715ZM7.17112 1.27264C3.38297 1.52089 0.772112 4.92784 1.3595 8.66003C1.9835 12.627 5.33069 16.3373 7.45556 19.6088L7.57422 19.6942C8.88028 17.8491 10.2583 16.0403 11.4352 14.1073C13.3223 11.0075 15.087 7.22606 12.6508 3.86877C11.4023 2.14784 9.3103 1.13253 7.17112 1.27306V1.27264Z" fill="black"/>
<path d="M7.12963 3.79232C10.2606 3.48768 12.4334 6.8374 10.7806 9.54587C9.0559 12.3726 4.72369 11.7145 3.89562 8.51626C3.32885 6.32785 4.86296 4.0128 7.12963 3.79232ZM7.29752 5.05209C3.8506 5.39333 4.65763 10.7711 8.10455 10.0171C11.137 9.35401 10.431 4.74157 7.29752 5.05209Z" fill="black"/>
</svg>
