<svg width="120" height="120" viewBox="0 0 120 120" fill="none" xmlns="http://www.w3.org/2000/svg">
<circle cx="60" cy="60" r="60" fill="#D9D9D9"/>
<path d="M79.3544 73.728C80.4238 73.9302 81.4512 74.5562 81.881 75.6106C82.3109 76.665 82.3319 80.8451 81.9499 81.9669C81.5905 83.0213 80.4792 83.914 79.3424 83.917C79.1043 87.5804 80.5316 90.0951 76.1717 91.2828C71.3281 92.6008 65.9153 92.9812 61.0132 94.2049C55.7832 93.1864 49.1003 92.7611 44.068 91.16C40.2113 89.9333 41.6431 87.1131 41.3721 83.917C40.2847 83.9185 39.1794 83.0723 38.805 82.0763C38.4081 81.0204 38.4185 77.6011 38.6058 76.4314C38.8454 74.9426 39.8908 73.9721 41.3586 73.7295C41.6387 71.0336 40.3102 66.5089 43.7954 65.483C44.5248 65.2688 45.5897 65.4935 46.009 65.3033C46.2876 65.1774 46.4958 64.6353 46.7519 64.4031C49.2082 62.176 51.6899 61.6144 54.9774 61.7207L56.1022 59.6988C54.5281 58.1321 52.6469 56.2735 52.4388 53.946C52.3099 52.5112 52.5706 50.8951 52.4358 49.4663C52.2366 47.3605 51.3933 45.746 52.5061 43.5563C53.9664 40.6836 58.3248 39.6083 61.2634 40.1909C64.8324 40.8978 68.4479 44.2138 68.7235 47.9731C68.8164 49.2342 68.4045 49.1353 68.2802 49.7673C68.0795 50.7858 68.3701 52.5142 68.2832 53.6569C68.0915 56.218 66.3526 57.9914 64.6108 59.7018L65.7356 61.7237C68.9677 61.6353 71.4629 62.1386 73.8877 64.3312C74.1648 64.5813 74.4344 65.1849 74.7039 65.3092C75.0454 65.465 76.1403 65.2778 76.8008 65.4545C80.4297 66.4206 79.0728 71.0201 79.3544 73.7354V73.728ZM59.1336 42.1035C58.888 42.1155 57.8306 42.2368 57.8186 42.436C58.3173 43.2178 58.5989 44.2153 58.7097 45.1289C58.7681 45.6127 58.5585 46.4364 58.8595 46.7719C61.0911 48.1543 64.0491 48.8418 66.5698 47.8982C65.9707 44.4789 62.5813 41.9432 59.1336 42.102V42.1035ZM54.23 48.1917C56.8331 47.5552 57.3498 45.2921 55.7832 43.2717C53.7118 44.0865 53.944 46.348 54.23 48.1917ZM66.1834 50.2841C63.2314 50.675 60.2434 50.1702 57.7392 48.5287C56.7956 49.3045 55.7652 50.0444 54.5461 50.302C54.6404 51.6919 54.2435 53.588 54.7992 54.8716C55.6004 56.7243 58.5195 59.5954 60.6882 59.3663C62.505 59.1746 66.1849 55.7028 66.1849 53.946V50.2841H66.1834ZM58.0372 60.9329C57.1791 62.0307 56.4497 62.6433 57.6613 63.8145C59.3747 65.471 62.6562 64.9962 63.7346 62.8425L62.7536 60.9658C61.145 61.5275 59.6263 61.7147 58.0372 60.9329ZM56.0752 65.1759C55.8011 64.9064 55.3174 64.0017 55.0223 63.9119C53.577 63.849 52.1737 63.7741 50.7942 64.2608C50.4692 64.3762 47.8857 65.7196 48.2511 66.124L60.2868 69.2677L72.4588 66.124C72.8273 65.7211 70.3006 64.4421 69.9966 64.3282C69.2268 64.0392 65.9902 63.5689 65.4585 63.9074C65.4225 63.9298 65.2937 64.3747 65.138 64.5574C62.7761 67.3372 58.7607 67.8254 56.0737 65.1759H56.0752ZM59.3103 91.9807V71.2822L45.1209 67.3881C44.6146 67.1694 43.4689 68.0381 43.4689 68.4425V73.7474C44.6116 73.6546 46.2442 73.7714 46.7908 74.9831C47.2042 75.8982 47.1428 79.9675 47.0619 81.1522C46.8897 83.6714 45.8967 84.0802 43.4689 83.9095V88.3188C43.4689 88.7382 44.5457 89.189 44.9322 89.2474L59.3088 91.9807H59.3103ZM77.2426 73.7474V68.4425C77.2426 68.0396 76.0968 67.1709 75.5906 67.3881L61.4011 71.2073V91.9807C65.8868 90.9308 70.702 90.4875 75.1518 89.3672C75.6116 89.2519 77.2426 88.9463 77.2426 88.3188V83.9095C74.8148 84.0787 73.8218 83.6699 73.6495 81.1522C73.5687 79.9675 73.5073 75.8982 73.9206 74.9831C74.4673 73.7729 76.0998 73.6546 77.2426 73.7474ZM44.8138 75.8398H41.4514C41.3346 75.8398 40.8808 76.2307 40.7954 76.3789C40.5034 76.8897 40.5184 81.0428 40.8643 81.5086C40.9272 81.594 41.2388 81.8172 41.3017 81.8172H44.8138V75.8398ZM75.8976 81.8172H79.4098C79.4742 81.8172 79.7842 81.594 79.8471 81.5086C80.1796 81.0608 80.1542 77.8332 80.0883 77.1023C80.0493 76.674 79.7513 75.8398 79.2585 75.8398H75.8961V81.8172H75.8976Z" fill="#134bd5"/>
<path d="M89.6442 52.6749L89.6397 65.7486C88.9313 67.113 87.6867 66.6607 87.5444 65.1614C87.1445 60.9528 87.8649 56.1212 87.5444 51.8452C87.3917 51.5336 88.0402 50.5826 88.2244 50.5826H90.5414L85.3083 42.6626L79.93 50.5826H82.247C82.6289 50.5826 82.894 51.6594 82.9254 51.9964C83.1186 54.0528 83.1171 58.3198 82.9254 60.3777C82.7876 61.85 81.6164 62.4715 80.8316 61.1161L80.8271 52.6764H77.7643C77.1217 52.6764 76.4583 51.6819 76.9106 51.0738C79.3294 47.8417 81.4067 44.1663 83.845 40.9732C84.3812 40.2707 84.6748 39.4784 85.7232 39.9382L93.5638 51.0753C93.9772 51.6579 93.3286 52.6779 92.7086 52.6779H89.6457L89.6442 52.6749Z" fill="#134bd5"/>
<path d="M39.884 52.6744L39.8795 61.1141C39.6863 62.1505 37.934 62.1625 37.7842 60.527C37.5985 58.5081 37.555 53.6689 37.7872 51.6994C37.8231 51.3999 38.2125 50.5821 38.4627 50.5821H40.7797L35.5481 42.6621L30.1698 50.5821H32.4867C32.7473 50.5821 33.276 51.6665 33.1652 51.996C32.8896 56.2121 33.5112 60.8445 33.1652 65.0097C33.1398 65.3152 33.0349 65.9383 32.8702 66.1704C32.4358 66.7785 31.0909 66.5793 31.0819 65.7421L31.0684 52.6729H28.0026C27.36 52.6729 26.6965 51.6784 27.1488 51.0704L34.955 39.8988L35.9615 39.9333L43.8021 51.0704C44.2169 51.653 43.5669 52.6729 42.9469 52.6729H39.884V52.6744Z" fill="#134bd5"/>
<path d="M59.8634 25.058C60.0881 24.9906 60.4985 24.9831 60.7276 25.0295C61.4121 25.1703 62.802 27.8692 63.4984 28.3859C64.2997 28.982 66.4355 29.2441 67.3401 29.7743C69.0655 30.7868 65.754 33.4962 65.4739 34.5521C65.1939 35.608 65.9906 38.9674 64.7341 39.3433C63.8025 39.6219 61.6622 38.4027 60.5779 38.3233C59.3452 38.232 56.7647 39.7042 55.875 39.2969C54.8131 38.8101 55.4616 35.7832 55.24 34.7003C55.0632 33.8317 53.3963 32.2276 52.9739 31.287C52.0483 29.2291 56.0398 29.2591 57.214 28.3859C57.879 27.8917 59.2868 25.2302 59.8619 25.058H59.8634ZM57.3682 34.5161C57.4626 35.2815 57.2993 36.1981 57.3682 36.9814C58.162 36.8346 59.5504 36.0887 60.2798 36.0827C61.0856 36.0767 62.5189 36.7672 63.3457 36.9814V34.0668C63.3457 33.601 65.3361 31.3679 65.1384 31.1537C64.3536 30.9021 62.9592 30.6071 62.3062 30.1742C61.7955 29.8357 60.6303 27.7988 60.2963 27.8707C59.6238 28.3949 59.0517 29.7294 58.4092 30.1757C57.7966 30.6011 56.3303 30.9051 55.5755 31.1537C55.9664 32.3804 57.202 33.1547 57.3682 34.5146V34.5161Z" fill="#134bd5"/>
<path d="M46.1183 26.5468C47.4797 26.2592 48.1058 28.5073 49.0029 29.1303C49.6514 29.5812 50.9919 29.7444 51.7273 30.1428C53.4766 31.0894 50.8481 33.0184 50.5605 33.9875C50.2999 34.8666 50.6594 36.1262 50.4602 37.0248C50.0768 38.7547 47.4842 37.0338 46.5197 36.9904C45.6076 36.95 42.7529 38.7892 42.4264 37.0533C42.2407 36.0648 42.6061 34.9385 42.2002 33.8422C41.9202 33.0873 40.6186 31.9401 40.5063 31.1927C40.3041 29.8418 43.1648 29.6905 43.9151 29.1333C44.5532 28.6586 45.4009 26.698 46.1198 26.5468H46.1183ZM46.6035 29.361C46.3489 29.1843 45.4728 30.6775 45.1043 30.9216C44.5576 31.2856 43.8223 31.2526 43.3175 31.6795C44.351 32.9001 44.3719 33.8017 44.5172 35.3384C45.94 34.7977 46.975 34.8037 48.3993 35.3384C48.1657 33.7373 48.6434 32.8672 49.593 31.6765C48.302 31.1283 47.1532 30.8213 46.605 29.3625L46.6035 29.361Z" fill="#134bd5"/>
<path d="M73.9128 26.5497C75.2053 26.1558 75.9257 28.5222 76.8004 29.1303C77.4729 29.5976 78.7579 29.7039 79.5203 30.1458C81.2546 31.1522 78.6606 32.9974 78.355 33.9844C78.0914 34.8381 78.4554 36.1322 78.2562 37.0248C77.8728 38.7547 75.2802 37.0338 74.3157 36.9904C73.2702 36.9439 70.5414 38.9105 70.2284 36.899C70.0981 36.0678 70.3871 34.8726 70.1834 34.1043C69.9797 33.3359 68.5539 32.1782 68.3772 31.2736C68.0776 29.7369 70.9637 29.7594 71.792 29.0659C72.3491 28.5986 73.2313 26.7594 73.9113 26.5512L73.9128 26.5497ZM74.401 29.361C74.1509 29.1812 73.2657 30.6805 72.9018 30.9216C72.3551 31.2855 71.6197 31.2526 71.115 31.6794C72.0137 32.8072 72.4525 33.8452 72.3117 35.3384C73.76 34.8307 74.7455 34.7812 76.1953 35.3384C75.9646 33.7927 76.4948 32.8417 77.389 31.6764C76.0635 31.1418 74.9896 30.7883 74.401 29.3625V29.361Z" fill="#134bd5"/>
</svg>
