<svg width="140" height="104" viewBox="0 0 140 104" fill="none" xmlns="http://www.w3.org/2000/svg">
<path d="M106.577 103.604C124.493 103.604 139.016 89.0625 139.016 71.1239C139.016 53.1914 124.493 38.6505 106.577 38.6505C106.577 38.6505 106.734 26.5859 116.526 9.22176C117.614 5.74252 115.675 2.03744 112.197 0.954961C109.729 0.177961 107.132 0.933217 105.456 2.69132C82.9403 27.3412 74.1269 56.3524 74.1269 71.1239C74.1269 89.0625 88.6496 103.604 106.577 103.604Z" fill="#EEEEEE"/>
<path d="M32.4524 103.604C50.3677 103.604 64.8906 89.0623 64.8906 71.1239C64.8906 53.1914 50.3677 38.6505 32.4524 38.6505C32.4524 38.6505 32.6093 26.5859 42.4012 9.22176C43.4889 5.74252 41.5497 2.03744 38.0719 0.954961C35.6041 0.177961 33.0074 0.933217 31.3308 2.69132C8.81527 27.3412 0.0016826 56.3524 0.00168131 71.1239C0.00167974 89.0625 14.5247 103.604 32.4524 103.604Z" fill="#EEEEEE"/>
</svg>
