<svg width="20" height="18" viewBox="0 0 20 18" fill="none" xmlns="http://www.w3.org/2000/svg">
<path d="M20 9.05508C19.9353 9.10795 19.8621 9.15202 19.806 9.21371C17.0001 12.0778 14.1984 14.942 11.3968 17.8061C11.3364 17.8678 11.289 17.9427 11.2416 18C10.7158 17.4536 10.2158 16.9337 9.72443 16.4225C11.7244 14.378 13.7588 12.2982 15.7932 10.2228C15.7803 10.2007 15.7717 10.1743 15.7587 10.1523C9.8408 10.1523 5.92656 10.1523 0 10.1523C0 9.38115 0 8.64529 0 7.88739C5.92656 7.88739 9.83649 7.88739 15.7803 7.88739C13.72 5.78556 11.6856 3.70575 9.6684 1.64357C10.1986 1.09278 10.7028 0.577234 11.2675 0C11.2933 0.04847 11.3235 0.136597 11.3839 0.198286C14.1898 3.07124 17.0001 5.93978 19.806 8.80832C19.8621 8.86561 19.9353 8.91408 20 8.96695C20 8.99339 20 9.02423 20 9.05508Z" fill="#ffffff"/>
</svg>
