<svg width="33" height="32" viewBox="0 0 33 32" fill="none" xmlns="http://www.w3.org/2000/svg">
<path d="M5.35445 29.0131C5.73979 26.7361 6.09009 24.3891 6.58052 22.077C6.82574 20.921 6.58052 20.1153 5.70475 19.3446C4.02328 17.8383 2.37683 16.297 0.870506 14.6155C0.310013 14.02 -0.180418 12.8639 0.0647978 12.2684C0.380075 11.5678 1.431 10.9022 2.27174 10.692C4.51371 10.2016 6.86077 10.0615 9.13777 9.57104C9.83839 9.43092 10.6441 8.80037 10.9944 8.16981C12.0804 6.27815 12.9211 4.21133 14.0421 2.31967C14.4975 1.58402 15.4433 0.708252 16.179 0.708252C16.9146 0.708252 17.9305 1.54899 18.3509 2.28464C19.5069 4.21133 20.3476 6.31318 21.4686 8.2749C21.8189 8.87043 22.5546 9.43092 23.2201 9.57104C25.4972 10.0264 27.8092 10.2016 30.0862 10.692C30.9269 10.8672 32.0829 11.4977 32.2931 12.1984C32.5383 12.899 32.0129 14.09 31.4524 14.7206C29.9461 16.402 28.1595 17.8383 26.6882 19.5198C26.1627 20.1153 25.8124 21.1662 25.8825 21.9369C26.1277 24.2139 26.7232 26.4559 27.0035 28.7329C27.1086 29.4685 26.7933 30.5895 26.2678 31.0099C25.7424 31.4303 24.5863 31.4653 23.9208 31.185C21.7489 30.2392 19.647 29.0832 17.5802 27.9272C16.5993 27.4017 15.8287 27.3667 14.8478 27.9272C12.781 29.0832 10.6791 30.2042 8.50722 31.2201C6.68562 32.0958 5.21432 31.0449 5.35445 29.0131Z" fill="#FCBE42"/>
</svg>
