<svg width="120" height="120" viewBox="0 0 120 120" fill="none" xmlns="http://www.w3.org/2000/svg">
<circle cx="60" cy="60" r="60" fill="#ECECEC"/>
<path d="M61.442 30C62.1513 30.1887 62.8806 30.2454 63.5939 30.4328C64.1502 30.5779 64.7172 30.8102 65.2482 31.0305C71.563 33.6628 77.9897 37.5671 84.1421 40.5966C85.1909 41.5058 85.654 42.6497 85.9987 43.9547V45.5341C85.5542 47.5093 84.6838 48.6731 82.9484 49.6838C81.4379 50.5639 79.7411 51.2038 78.184 52.0008C78.3969 53.1448 78.9093 54.2413 79.1648 55.4064C80.3599 60.8703 79.1941 66.2326 75.8896 70.7227C75.7445 70.9193 74.3684 72.4407 74.4523 72.5212C79.8648 73.6599 84.3178 78.0616 85.5928 83.3936C85.7538 84.0678 85.7804 84.7698 86 85.4242V87.3995C85.4796 88.7902 83.9332 89.5093 82.6143 88.5857C81.4858 87.794 81.7999 86.2608 81.5776 85.006C80.5742 79.3573 75.0791 75.5757 69.3525 76.3529C68.703 76.4413 67.7781 77.0311 67.0861 77.2647C63.1375 78.6052 59.4989 78.8573 55.4399 77.7515C52.8461 77.0456 52.1673 76.1194 49.1583 76.3358C44.3353 76.6828 40.2869 80.2889 39.4498 85.006C39.1943 86.4482 39.5696 88.6292 37.584 88.9472C33.8816 89.5423 35.1153 84.2169 35.7554 82.2641C37.3391 77.4375 41.5685 73.5992 46.5751 72.5212C42.3031 67.7684 40.4812 61.716 41.8613 55.4064C42.1115 54.2611 42.568 53.1962 42.8687 52.0681C40.4533 50.5797 36.7775 49.8567 35.5345 47.0713C34.2276 44.1434 35.4094 41.3593 38.0777 39.805C44.0585 36.3203 51.2025 33.5177 57.4308 30.4328L59.5828 30H61.4406H61.442ZM59.6866 34.2487C59.1276 34.3107 58.4303 34.5139 57.9006 34.7158L39.7572 43.7093C39.0905 44.2991 39.1078 45.3124 39.8424 45.827L57.9006 54.7743C59.6813 55.4499 61.3422 55.4512 63.1255 54.7743L81.1837 45.827C81.8398 45.3639 81.921 44.5511 81.4685 43.9072L63.0323 34.6749C61.9397 34.2883 60.8458 34.1194 59.6853 34.2487H59.6866ZM66.8838 57.6468C63.6006 59.5323 60.0473 60.1063 56.4393 58.7235C53.1668 57.4687 49.9462 55.3575 46.7096 53.9602C42.4881 64.603 51.3409 75.7591 62.7981 74.0676C72.1885 72.6808 77.8752 62.7004 74.3152 53.9615L71.1518 55.628C70.9508 57.594 71.3488 59.8688 71.1305 61.7952C70.9402 63.4802 69.0318 64.2982 67.6756 63.2466C67.4201 63.0487 66.8825 62.3507 66.8825 62.0591V57.6481L66.8838 57.6468Z" fill="#134bd5"/>
</svg>
