<svg width="201" height="201" viewBox="0 0 201 201" fill="none" xmlns="http://www.w3.org/2000/svg">
<path d="M116.284 176.449C116.895 176.319 117.499 176.354 118.098 176.554C118.696 176.754 119.213 177.069 119.649 177.5C120.071 177.95 120.349 178.488 120.483 179.114C120.616 179.74 120.581 180.344 120.378 180.928C120.159 181.514 119.817 182.02 119.351 182.446C118.889 182.888 118.353 183.174 117.743 183.304C117.101 183.44 116.487 183.399 115.901 183.181C115.318 182.977 114.822 182.649 114.415 182.196C113.992 181.746 113.714 181.208 113.581 180.582C113.448 179.956 113.483 179.352 113.686 178.769C113.892 178.201 114.221 177.706 114.67 177.283C115.12 176.861 115.658 176.583 116.284 176.449Z" fill="black"/>
<path d="M137.913 165.145L146.746 159.314L156.306 173.795L147.473 179.626L146.283 177.823L154.054 172.693L153.669 174.069L150.165 168.761L143.976 172.847L142.825 171.104L149.014 167.019L145.444 161.611L146.888 161.837L139.116 166.967L137.913 165.145Z" fill="black"/>
<path d="M160.736 144.622L162.244 142.817L175.563 153.938L171.364 158.967C170.175 160.392 168.89 161.206 167.511 161.41C166.135 161.636 164.82 161.226 163.567 160.18C162.646 159.411 162.056 158.532 161.796 157.545C161.527 156.569 161.601 155.557 162.017 154.509L154.137 152.526L155.814 150.518L163.159 152.43L166.005 149.021L160.736 144.622ZM172.435 154.39L167.608 150.36L164.901 153.602C164.203 154.437 163.88 155.262 163.93 156.075C163.971 156.9 164.371 157.631 165.133 158.267C165.907 158.913 166.696 159.166 167.501 159.025C168.309 158.907 169.056 158.437 169.743 157.614L172.435 154.39Z" fill="black"/>
<path d="M167.382 133.598L171.543 123.867L187.498 130.689L183.337 140.42L181.351 139.571L185.012 131.009L185.448 132.37L179.6 129.87L176.684 136.688L174.765 135.868L177.68 129.049L171.722 126.501L173.051 125.895L169.39 134.457L167.382 133.598Z" fill="black"/>
<path d="M175.241 102.346L175.48 100.006L192.742 101.77L192.503 104.11L185.078 103.351L184.204 111.899L191.63 112.657L191.391 114.997L174.128 113.233L174.367 110.894L182.032 111.677L182.905 103.129L175.241 102.346Z" fill="black"/>
<path d="M188.107 71.9855L171.129 66.6755L174.425 65.4172L187.106 69.3622L188.107 71.9855ZM184.349 62.1423L168.139 68.3308L167.3 66.1334L183.511 59.945L184.349 62.1423ZM176.871 68.2596L179.303 68.9756L171.93 78.2636L170.955 75.7075L176.871 68.2596Z" fill="black"/>
<path d="M158.304 53.4689C157.271 52.185 156.655 50.8325 156.456 49.4112C156.269 47.98 156.477 46.58 157.081 45.2114C157.696 43.8328 158.702 42.5817 160.098 41.4582C161.494 40.3346 162.936 39.6257 164.425 39.3315C165.913 39.0373 167.342 39.1405 168.71 39.6413C170.088 40.1545 171.294 41.053 172.327 42.3369C173.15 43.359 173.699 44.4368 173.975 45.5705C174.263 46.6941 174.285 47.806 174.041 48.9062C173.797 50.0063 173.279 51.0086 172.487 51.913L170.907 49.9498C171.591 48.9883 171.897 47.9517 171.823 46.8399C171.75 45.7282 171.317 44.6799 170.525 43.6952C169.792 42.7853 168.932 42.1632 167.944 41.8287C166.979 41.4967 165.953 41.4597 164.867 41.7178C163.793 41.9658 162.726 42.5162 161.667 43.3689C160.62 44.2115 159.854 45.1358 159.37 46.1418C158.885 47.1477 158.701 48.169 158.817 49.2057C158.944 50.2323 159.37 51.1943 160.092 52.0918C160.894 53.0889 161.83 53.7534 162.898 54.0851C163.988 54.4192 165.051 54.3749 166.087 53.952L167.652 55.8965C166.604 56.4318 165.513 56.6837 164.378 56.652C163.254 56.6328 162.163 56.3499 161.107 55.8033C160.061 55.2691 159.127 54.491 158.304 53.4689Z" fill="black"/>
<path d="M156.131 26.9228L145.565 40.6875L143.7 39.2554L154.265 25.4907L156.131 26.9228Z" fill="black"/>
<path d="M134.636 14.5827L127.451 30.3772L125.31 29.4033L132.495 13.6088L134.636 14.5827ZM125.681 29.5722L126.586 27.5843L135.302 31.5495L134.398 33.5375L125.681 29.5722Z" fill="black"/>
<path d="M110.198 26.2763C108.565 26.054 107.188 25.4951 106.066 24.5996C104.947 23.6883 104.136 22.5283 103.633 21.1196C103.133 19.6951 103.004 18.095 103.245 16.3194C103.487 14.5438 104.047 13.0376 104.926 11.8009C105.805 10.5641 106.914 9.65736 108.252 9.08059C109.606 8.50598 111.099 8.32983 112.732 8.55214C114.032 8.72913 115.172 9.13458 116.151 9.7685C117.133 10.3866 117.913 11.1791 118.492 12.146C119.071 13.1129 119.383 14.197 119.43 15.3982L116.933 15.0583C116.769 13.8895 116.278 12.9265 115.461 12.1693C114.644 11.4122 113.609 10.9483 112.356 10.7778C111.199 10.6202 110.147 10.7595 109.199 11.1957C108.27 11.6182 107.499 12.2964 106.887 13.2305C106.278 14.1487 105.882 15.2815 105.698 16.6291C105.517 17.9608 105.596 19.1584 105.936 20.222C106.275 21.2855 106.843 22.1541 107.64 22.8277C108.438 23.4854 109.408 23.892 110.55 24.0474C111.818 24.2201 112.954 24.0598 113.958 23.5667C114.979 23.0599 115.721 22.297 116.183 21.278L118.656 21.6147C118.263 22.7238 117.643 23.6567 116.797 24.4136C115.967 25.1725 114.981 25.7164 113.838 26.0453C112.711 26.3763 111.498 26.4533 110.198 26.2763Z" fill="black"/>
<path d="M80.9091 24.8259C80.3044 24.9799 79.699 24.9689 79.0928 24.793C78.4867 24.6172 77.9576 24.3226 77.5057 23.9093C77.0653 23.4766 76.7661 22.9502 76.6082 22.33C76.4503 21.7097 76.4613 21.1043 76.6411 20.5137C76.8364 19.9191 77.1582 19.3997 77.6064 18.9553C78.0507 18.4955 78.5752 18.1886 79.1799 18.0346C79.8156 17.8727 80.4307 17.8894 81.0253 18.0848C81.6159 18.2646 82.1237 18.5728 82.5486 19.0095C82.989 19.4422 83.2881 19.9687 83.4461 20.5889C83.604 21.2091 83.593 21.8145 83.4132 22.4052C83.2294 22.9803 82.9212 23.488 82.4885 23.9284C82.0558 24.3688 81.5293 24.668 80.9091 24.8259Z" fill="black"/>
<path d="M44.258 32.4257C43.6875 31.6142 43.3889 30.7582 43.3623 29.8577C43.3356 28.9573 43.5691 28.0792 44.0629 27.2236C44.5698 26.3588 45.3075 25.586 46.2761 24.9051C47.1793 24.2702 48.0797 23.8817 48.9773 23.7397C49.8788 23.5754 50.7264 23.6543 51.52 23.9765C52.3268 24.2895 53.0462 24.8399 53.6782 25.6277L51.7344 26.9941C51.1852 26.3241 50.5369 25.9584 49.7897 25.8969C49.0424 25.8355 48.2695 26.0854 47.4711 26.6467C46.581 27.2724 46.0148 27.9833 45.7726 28.7794C45.5212 29.5624 45.6439 30.3074 46.1408 31.0142C46.5456 31.5902 47.0359 31.9398 47.6116 32.0632C48.178 32.1735 48.8503 32.0725 49.6282 31.7603L52.3512 30.6677C53.7002 30.1105 54.8881 29.9502 55.9149 30.1868C56.9456 30.401 57.8106 31.0055 58.5099 32.0003C59.108 32.8511 59.4184 33.7379 59.4412 34.6607C59.4771 35.5742 59.2351 36.468 58.7151 37.342C58.2082 38.2068 57.4509 38.9934 56.443 39.7019C55.4874 40.3736 54.5327 40.81 53.5789 41.0112C52.6289 41.19 51.7375 41.1321 50.9046 40.8375C50.0755 40.5207 49.3542 39.9814 48.7406 39.2198L50.704 37.8396C51.1955 38.511 51.8523 38.861 52.6742 38.8895C53.4869 38.9049 54.3383 38.5998 55.2284 37.9741C56.1708 37.3116 56.7697 36.5777 57.025 35.7724C57.2934 34.9579 57.1838 34.2037 56.6961 33.51C56.3005 32.9471 55.8214 32.5994 55.2588 32.4668C54.6962 32.3343 54.0194 32.4287 53.2283 32.7501L50.5192 33.8624C49.1832 34.4103 47.9842 34.5687 46.922 34.3374C45.8637 34.0839 44.9757 33.4467 44.258 32.4257Z" fill="black"/>
<path d="M31.3461 56.4761L22.5545 49.5631L24.0084 47.7142L32.6867 54.5382C33.781 55.3987 34.8511 55.772 35.8972 55.6583C36.9406 55.5221 37.8875 54.9131 38.7381 53.8315C39.5787 52.7624 39.9309 51.7062 39.7947 50.6628C39.6585 49.6194 39.0496 48.6725 37.9679 47.8219L29.2895 40.9979L30.7582 39.1302L39.5498 46.0432C40.5937 46.8641 41.3249 47.785 41.7432 48.806C42.1715 49.8145 42.2866 50.8718 42.0885 51.9779C41.8904 53.0841 41.371 54.1717 40.5303 55.2408C39.6897 56.3099 38.7566 57.0824 37.7311 57.5583C36.7029 58.0117 35.6433 58.1555 34.5524 57.9898C33.4588 57.8015 32.3901 57.297 31.3461 56.4761Z" fill="black"/>
<path d="M19.649 76.127C21.374 76.4764 22.8315 77.1389 24.0215 78.1145C25.199 79.0713 26.0386 80.2454 26.5404 81.6367C27.0297 83.0091 27.1107 84.503 26.7836 86.1182C26.4628 87.702 25.8084 89.0387 24.8204 90.1283C23.82 91.199 22.5912 91.9459 21.1342 92.3691C19.6772 92.7923 18.0784 92.8276 16.3377 92.475C14.6127 92.1256 13.1615 91.4725 11.984 90.5157C10.8097 89.5432 9.97006 88.3692 9.4651 86.9936C8.96013 85.6179 8.86964 84.1304 9.19363 82.5308C9.52078 80.9156 10.1846 79.5727 11.1851 78.502C12.1855 77.4313 13.4143 76.6844 14.8713 76.2612C16.3315 75.8223 17.924 75.7776 19.649 76.127ZM19.1583 78.5498C17.841 78.283 16.6392 78.2926 15.5528 78.5786C14.4696 78.8489 13.574 79.3613 12.8661 80.1158C12.1426 80.8672 11.6633 81.823 11.4282 82.9835C11.1964 84.1282 11.2675 85.1874 11.6417 86.1611C12.0002 87.1316 12.6241 87.9599 13.5136 88.6461C14.4063 89.3167 15.5112 89.7854 16.8285 90.0522C18.1457 90.319 19.3459 90.3172 20.4292 90.0469C21.5156 89.7609 22.4205 89.2422 23.1441 88.4909C23.8677 87.7396 24.3454 86.7915 24.5772 85.6468C24.8123 84.4864 24.7427 83.4193 24.3686 82.4457C23.9787 81.4688 23.3375 80.6451 22.4448 79.9746C21.5554 79.2883 20.4598 78.8134 19.1583 78.5498Z" fill="black"/>
<path d="M9.39947 110.109L25.5863 108.446L25.8266 110.786L9.63985 112.449L9.39947 110.109ZM11.2489 117.543L9.10022 117.764L7.79285 105.039L9.94155 104.818L11.2489 117.543Z" fill="black"/>
<path d="M18.7085 144.115L36.3692 146.249L33.3569 148.086L20.1702 146.512L18.7085 144.115ZM24.1931 153.111L39.0087 144.078L40.233 146.086L25.4174 155.119L24.1931 153.111ZM30.4343 145.736L27.9134 145.474L33.4741 135L34.8984 137.336L30.4343 145.736Z" fill="black"/>
<path d="M42.2036 172.298L53.6592 159.265L55.4258 160.817L43.9702 173.85L42.2036 172.298ZM55.1193 160.548L53.6775 162.188L46.4849 155.866L47.9268 154.226L55.1193 160.548Z" fill="black"/>
<path d="M76.2122 171.704L78.4486 172.699L65.6032 185.974L63.2133 184.91L64.4602 166.472L66.7185 167.477L66.3867 172.058L73.0521 175.025L76.2122 171.704ZM66.205 182.144L71.5646 176.596L66.1929 174.205L65.6788 181.91C65.6511 182.09 65.6307 182.274 65.6176 182.46C65.598 182.662 65.5694 182.824 65.532 182.948C65.6133 182.844 65.7149 182.714 65.8368 182.558C65.9523 182.417 66.075 182.279 66.205 182.144Z" fill="black"/>
<path d="M89.9855 190.957L91.8787 174.795L94.2148 175.069L92.3215 191.23L89.9855 190.957ZM97.6436 190.766L97.3923 192.912L84.6872 191.423L84.9385 189.278L97.6436 190.766Z" fill="black"/>
</svg>
