<svg width="120" height="120" viewBox="0 0 120 120" fill="none" xmlns="http://www.w3.org/2000/svg">
<path d="M71.6823 10.8764L70.3592 10.6756C70.3387 10.2831 70.2525 9.92801 70.1006 9.61022C69.9523 9.29297 69.7542 9.01547 69.5065 8.77773C69.2629 8.53698 68.9815 8.34143 68.6622 8.19108C68.343 8.04074 68.002 7.93803 67.6392 7.88296C66.9777 7.78253 66.353 7.85872 65.7652 8.11152C65.1809 8.36487 64.6811 8.79296 64.2657 9.39579C63.8539 9.99916 63.5762 10.7739 63.4326 11.72C63.2889 12.6661 63.3242 13.4883 63.5384 14.1868C63.7561 14.8857 64.1064 15.4428 64.5892 15.8582C65.0755 16.274 65.6494 16.5322 66.311 16.6326C66.6738 16.6877 67.0299 16.6908 67.3793 16.642C67.7288 16.5931 68.0553 16.4917 68.3589 16.3376C68.6665 16.1806 68.9383 15.9726 69.1741 15.7136C69.414 15.4517 69.6017 15.1381 69.7371 14.773L71.0603 14.9738C70.8759 15.5171 70.6186 15.9893 70.2885 16.3904C69.9583 16.7915 69.5741 17.1171 69.1359 17.3671C68.6982 17.6136 68.2236 17.7799 67.712 17.866C67.204 17.9526 66.6744 17.954 66.1231 17.8704C65.1912 17.7289 64.397 17.3755 63.7406 16.81C63.0841 16.2446 62.6115 15.5106 62.3228 14.6081C62.0341 13.7055 61.9772 12.678 62.1521 11.5256C62.3271 10.3732 62.6863 9.40892 63.2299 8.6327C63.7735 7.85647 64.4426 7.2958 65.2373 6.95068C66.032 6.60557 66.8953 6.50374 67.8271 6.6452C68.3784 6.72889 68.8838 6.88748 69.3432 7.12097C69.8062 7.355 70.2098 7.65642 70.5541 8.02526C70.8989 8.39053 71.1694 8.81367 71.3657 9.29466C71.5625 9.7721 71.668 10.2994 71.6823 10.8764Z" fill="#111111"/>
<path d="M74.3376 19.5893L78.8769 9.51302L80.0971 10.0627L76.0454 19.0566L80.7293 21.1667L80.2417 22.2491L74.3376 19.5893Z" fill="#111111"/>
<path d="M90.7813 15.8953L84.4668 24.9653L83.3685 24.2006L89.683 15.1306L90.7813 15.8953Z" fill="#111111"/>
<path d="M99.722 28.8055L98.8116 27.8246C99.0399 27.5048 99.1935 27.1732 99.2725 26.8299C99.3539 26.4893 99.3717 26.1489 99.3259 25.8086C99.2851 25.4685 99.1866 25.1403 99.0304 24.8239C98.8741 24.5075 98.6712 24.2148 98.4216 23.9459C97.9664 23.4554 97.4301 23.1261 96.8127 22.958C96.1978 22.7925 95.5401 22.8164 94.8397 23.0296C94.1418 23.2454 93.4422 23.6788 92.7408 24.3298C92.0394 24.9807 91.5551 25.6462 91.2879 26.3261C91.0232 27.0086 90.9505 27.6627 91.0697 28.2882C91.1914 28.9164 91.4798 29.4758 91.935 29.9662C92.1846 30.2352 92.4614 30.4593 92.7653 30.6387C93.0691 30.818 93.3878 30.9419 93.7213 31.0103C94.0598 31.0789 94.402 31.0853 94.7477 31.0295C95.0985 30.9738 95.4406 30.8453 95.7739 30.6439L96.6843 31.6248C96.2018 31.9352 95.7065 32.1446 95.1985 32.2529C94.6904 32.3612 94.1871 32.3768 93.6885 32.2997C93.1925 32.2201 92.7175 32.0548 92.2636 31.8037C91.8121 31.5552 91.3967 31.2266 91.0174 30.8179C90.3762 30.127 89.9747 29.356 89.813 28.5048C89.6513 27.6537 89.7384 26.7851 90.0743 25.899C90.4103 25.0129 91.0054 24.1734 91.8598 23.3805C92.7141 22.5876 93.5956 22.0566 94.5042 21.7875C95.4128 21.5185 96.2855 21.4963 97.1223 21.7209C97.9591 21.9456 98.698 22.4034 99.3392 23.0942C99.7186 23.5029 100.015 23.9416 100.229 24.4104C100.446 24.8818 100.574 25.3689 100.614 25.8719C100.657 26.3724 100.605 26.872 100.459 27.3706C100.316 27.8667 100.07 28.345 99.722 28.8055Z" fill="#111111"/>
<path d="M96.4764 37.2856L106.391 32.4038L106.982 33.6044L102.064 36.0262L102.121 36.1424L109.233 38.1745L110.005 39.7431L103.482 37.7822L100.09 44.6249L99.375 43.1726L102.287 37.4563L100.282 36.9035L97.0676 38.4862L96.4764 37.2856Z" fill="#111111"/>
<path d="M102.609 53.9028L113.656 53.5824L113.695 54.9201L108.776 55.0628L108.947 60.953L113.866 60.8103L113.905 62.148L102.858 62.4685L102.819 61.1308L107.76 60.9874L107.589 55.0972L102.648 55.2405L102.609 53.9028Z" fill="#111111"/>
<path d="M102.375 67.0152L113.08 69.7614L111.422 76.222L110.272 75.927L111.597 70.7627L107.98 69.8348L106.741 74.6646L105.591 74.3696L106.83 69.5398L103.192 68.6065L101.846 73.8545L100.696 73.5595L102.375 67.0152Z" fill="#111111"/>
<path d="M99.2913 77.4537L108.914 82.8897L107.077 86.141C106.652 86.8927 106.175 87.4372 105.646 87.7745C105.119 88.1135 104.568 88.2733 103.993 88.2538C103.417 88.2343 102.846 88.0644 102.279 87.7441C101.712 87.4238 101.275 87.0239 100.967 86.5444C100.659 86.0649 100.516 85.5147 100.536 84.8939C100.559 84.2749 100.781 83.5926 101.203 82.8472L102.689 80.2161L103.741 80.8107L102.276 83.4042C101.986 83.9178 101.828 84.3738 101.801 84.7719C101.773 85.1732 101.856 85.5222 102.052 85.8189C102.25 86.1204 102.541 86.3801 102.926 86.5977C103.312 86.8154 103.689 86.9335 104.059 86.9523C104.428 86.971 104.781 86.8664 105.116 86.6385C105.454 86.4124 105.771 86.0394 106.064 85.5194L107.222 83.471L98.6331 78.6189L99.2913 77.4537ZM101.055 84.4248L95.3948 84.3508L96.1592 82.9977L101.798 83.1093L101.055 84.4248Z" fill="#111111"/>
<path d="M93.2241 87.2376L101.121 94.9694L96.4545 99.7351L95.6062 98.9046L99.3362 95.0951L96.668 92.4826L93.1796 96.0453L92.3314 95.2148L95.8197 91.652L93.1361 89.0244L89.3457 92.8956L88.4975 92.0651L93.2241 87.2376Z" fill="#111111"/>
<path d="M83.4219 99.9023C83.7807 99.6558 84.1684 99.5182 84.5851 99.4895C85.0039 99.4637 85.4041 99.538 85.7857 99.7123C86.1643 99.8887 86.4769 100.156 86.7233 100.515C86.9718 100.877 87.1094 101.265 87.1361 101.678C87.1619 102.097 87.0866 102.496 86.9102 102.874C86.7359 103.256 86.4694 103.57 86.1106 103.817C85.7488 104.065 85.36 104.201 84.9442 104.225C84.5275 104.254 84.1298 104.18 83.7512 104.003C83.3716 103.832 83.0576 103.566 82.8091 103.204C82.5626 102.845 82.4265 102.456 82.4007 102.037C82.372 101.621 82.4448 101.222 82.6191 100.84C82.7925 100.463 83.0601 100.151 83.4219 99.9023Z" fill="#111111"/>
<path d="M69.6639 109.542C69.867 109.866 70.0977 110.144 70.3558 110.376C70.6114 110.613 70.8931 110.798 71.2011 110.933C71.5055 111.068 71.8331 111.148 72.1839 111.171C72.5346 111.195 72.9037 111.159 73.2912 111.062C73.9264 110.903 74.4632 110.595 74.9014 110.137C75.3396 109.679 75.6326 109.093 75.7803 108.377C75.9281 107.662 75.8861 106.84 75.6544 105.911C75.4227 104.983 75.0718 104.238 74.6018 103.677C74.1317 103.116 73.5905 102.737 72.9781 102.541C72.3656 102.346 71.7278 102.331 71.0646 102.496C70.4503 102.649 69.942 102.915 69.5396 103.294C69.1346 103.677 68.8613 104.142 68.7197 104.689C68.5755 105.24 68.5852 105.844 68.749 106.5L68.3302 106.516L71.5554 105.711L71.8428 106.863L67.759 107.882L67.4715 106.73C67.2512 105.847 67.248 105.032 67.4621 104.285C67.6727 103.539 68.063 102.904 68.633 102.38C69.2003 101.86 69.9098 101.494 70.7615 101.281C71.7109 101.045 72.6009 101.06 73.4314 101.327C74.2585 101.595 74.9755 102.091 75.5824 102.815C76.1859 103.539 76.6288 104.467 76.911 105.598C77.1227 106.446 77.1995 107.237 77.1416 107.971C77.0811 108.709 76.9011 109.369 76.6016 109.952C76.302 110.535 75.8979 111.025 75.389 111.423C74.8801 111.82 74.2819 112.105 73.5943 112.277C73.0288 112.418 72.4804 112.464 71.9491 112.415C71.4151 112.37 70.9174 112.24 70.4559 112.025C69.9918 111.815 69.5771 111.527 69.2116 111.162C68.8471 110.801 68.551 110.372 68.3235 109.877L69.6639 109.542Z" fill="#111111"/>
<path d="M62.2205 102.937L61.7344 113.978L58.0038 113.813C57.1412 113.775 56.4397 113.597 55.8992 113.278C55.3585 112.962 54.9665 112.544 54.723 112.021C54.4795 111.499 54.3721 110.913 54.4007 110.263C54.4293 109.612 54.5877 109.041 54.8758 108.55C55.1639 108.058 55.5893 107.681 56.1518 107.417C56.7142 107.158 57.4231 107.047 58.2785 107.084L61.2975 107.217L61.2443 108.425L58.2684 108.294C57.679 108.268 57.2008 108.333 56.8338 108.49C56.4632 108.647 56.1901 108.879 56.0144 109.189C55.835 109.501 55.7356 109.878 55.7161 110.321C55.6967 110.763 55.7623 111.153 55.9131 111.491C56.0638 111.828 56.3168 112.095 56.6718 112.291C57.0268 112.49 57.5025 112.603 58.0991 112.629L60.4496 112.733L60.8836 102.878L62.2205 102.937ZM56.8052 107.668L54.3065 102.588L55.8591 102.657L58.3147 107.734L56.8052 107.668Z" fill="#111111"/>
<path d="M40.0052 104.203C40.3905 103.103 40.9222 102.222 41.6001 101.56C42.278 100.898 43.0394 100.471 43.8843 100.279C44.7292 100.087 45.5964 100.147 46.4859 100.458C47.3755 100.77 48.0904 101.264 48.6308 101.942C49.1712 102.619 49.4997 103.428 49.6162 104.368C49.7328 105.309 49.5984 106.329 49.2131 107.429C48.8277 108.529 48.2961 109.41 47.6181 110.072C46.9402 110.734 46.1788 111.161 45.334 111.353C44.4891 111.545 43.6219 111.485 42.7323 111.174C41.8428 110.862 41.1278 110.368 40.5874 109.691C40.047 109.013 39.7186 108.205 39.602 107.264C39.4855 106.324 39.6198 105.303 40.0052 104.203ZM41.2275 104.632C40.9111 105.535 40.7952 106.35 40.8797 107.077C40.9608 107.803 41.2018 108.415 41.6027 108.914C42.0002 109.412 42.5147 109.771 43.1462 109.992C43.7777 110.213 44.4057 110.254 45.0302 110.115C45.6513 109.974 46.2217 109.646 46.7416 109.13C47.258 108.614 47.6744 107.904 47.9908 107.001C48.3071 106.098 48.4248 105.283 48.3436 104.557C48.2591 103.83 48.0181 103.218 47.6206 102.72C47.2197 102.221 46.7035 101.861 46.072 101.64C45.4405 101.419 44.8142 101.379 44.1931 101.519C43.5686 101.659 42.9982 101.987 42.4818 102.504C41.9619 103.019 41.5438 103.728 41.2275 104.632Z" fill="#111111"/>
<path d="M36.3169 95.9463L31.5749 106.376L30.5292 105.507L34.508 97.1091L34.425 97.0401L26.8612 102.457L25.6994 101.491L29.645 93.0656L29.562 92.9966L22.0314 98.4411L20.9858 97.5717L30.3751 91.0059L31.4373 91.8891L27.6823 100.22L27.7487 100.275L35.2547 95.0631L36.3169 95.9463Z" fill="#111111"/>
<path d="M21.3879 78.9972L12.0195 85.593L11.5577 84.3139L19.2392 79.0846L19.2026 78.9831L9.93754 79.8272L9.42438 78.406L17.0913 73.1361L17.0546 73.0346L7.80424 73.9193L7.34239 72.6403L18.7634 71.7291L19.2326 73.0284L11.7777 78.3136L11.807 78.3948L20.9187 77.6979L21.3879 78.9972Z" fill="#111111"/>
<path d="M6.38301 64.4508L17.3971 63.5413L17.5072 64.875L6.49315 65.7846L6.38301 64.4508Z" fill="#111111"/>
<path d="M7.19981 58.5639L6.02073 58.4254L6.9874 50.1933L8.16648 50.3318L7.76118 53.7833L17.5583 54.9337L17.4022 56.2628L7.6051 55.1124L7.19981 58.5639Z" fill="#111111"/>
<path d="M18.7929 47.6343L8.6417 43.265L9.17079 42.0358L13.6912 43.9815L16.021 38.5688L11.5005 36.6231L12.0296 35.3939L22.1808 39.7632L21.6517 40.9924L17.1114 39.0382L14.7817 44.4508L19.322 46.4051L18.7929 47.6343Z" fill="#111111"/>
<path d="M26.1421 18.163L27.1445 17.2763L31.9928 22.7569C32.4934 23.3228 32.807 23.946 32.9335 24.6266C33.0604 25.3021 32.9958 25.9811 32.74 26.6638C32.4817 27.3437 32.0279 27.971 31.3785 28.5454C30.7292 29.1199 30.0513 29.4938 29.3449 29.6672C28.6361 29.8379 27.9529 29.8203 27.2952 29.6144C26.6379 29.4034 26.0589 29.0149 25.5584 28.4491L20.71 22.9685L21.7124 22.0818L26.4892 27.4815C26.8467 27.8857 27.2539 28.1668 27.7106 28.3247C28.1649 28.4799 28.6363 28.5024 29.1248 28.3922C29.6135 28.2768 30.0883 28.0153 30.549 27.6077C31.0098 27.2001 31.3272 26.7608 31.5013 26.2898C31.673 25.8161 31.7082 25.3455 31.6069 24.878C31.5058 24.4054 31.2765 23.967 30.919 23.5628L26.1421 18.163Z" fill="#111111"/>
<path d="M40.2078 12.9438C39.9179 12.4756 39.5004 12.2019 38.9554 12.1227C38.4103 12.0435 37.8346 12.1454 37.2282 12.4282C36.7848 12.6351 36.4303 12.8878 36.1647 13.1864C35.9023 13.4834 35.7367 13.8008 35.668 14.1385C35.6025 14.4747 35.6443 14.8026 35.7934 15.1221C35.9181 15.3894 36.0889 15.5896 36.3058 15.7227C36.5244 15.8509 36.7644 15.9315 37.0259 15.9643C37.2858 15.9939 37.5456 15.9978 37.8053 15.9759C38.0635 15.9507 38.2969 15.9192 38.5056 15.8814L39.6505 15.6808C39.9433 15.6276 40.2776 15.5868 40.6533 15.5584C41.0324 15.5284 41.4173 15.5494 41.808 15.6211C42.2005 15.6881 42.5682 15.8382 42.9111 16.0712C43.254 16.3042 43.535 16.6555 43.754 17.125C44.0065 17.6662 44.0928 18.2213 44.0129 18.7905C43.9363 19.3582 43.6875 19.897 43.2665 20.4071C42.8487 20.9156 42.2551 21.3493 41.4856 21.7082C40.7684 22.0428 40.0933 22.2167 39.4605 22.2301C38.8308 22.242 38.2695 22.1108 37.7764 21.8367C37.2866 21.5611 36.8943 21.1585 36.5997 20.629L37.8516 20.045C38.0607 20.408 38.3338 20.6617 38.6711 20.806C39.0101 20.9456 39.3789 20.9959 39.7775 20.9568C40.1779 20.913 40.5769 20.7983 40.9746 20.6127C41.4376 20.3968 41.8183 20.1279 42.1168 19.8061C42.4137 19.481 42.6066 19.1329 42.6956 18.762C42.783 18.3877 42.7415 18.018 42.5712 17.6529C42.4161 17.3203 42.1969 17.0931 41.9138 16.9711C41.6306 16.8492 41.307 16.7937 40.943 16.8047C40.5789 16.8157 40.198 16.8545 39.8003 16.9209L38.4037 17.1437C37.5163 17.2837 36.747 17.2516 36.0959 17.0472C35.4448 16.8428 34.9619 16.4032 34.6471 15.7283C34.3855 15.1675 34.309 14.6078 34.4175 14.049C34.5278 13.4855 34.7865 12.9678 35.1936 12.4961C35.6025 12.0195 36.1264 11.6322 36.7654 11.3341C37.411 11.033 38.0387 10.8811 38.6488 10.8783C39.2573 10.8723 39.8011 10.9998 40.2801 11.2606C40.7623 11.52 41.1294 11.8985 41.3814 12.3963L40.2078 12.9438Z" fill="#111111"/>
<path d="M53.6864 13.9637C53.2628 14.064 52.8515 14.0523 52.4526 13.9287C52.0528 13.8015 51.7064 13.5877 51.4135 13.2874C51.124 12.9862 50.9292 12.6238 50.8289 12.2002C50.7278 11.7732 50.7395 11.3619 50.864 10.9664C50.9911 10.5666 51.2053 10.222 51.5065 9.93256C51.8068 9.63964 52.1688 9.44304 52.5924 9.34275C53.0195 9.24164 53.4312 9.25508 53.8275 9.38307C54.2264 9.50673 54.5706 9.71915 54.8601 10.0203C55.1522 10.3172 55.3488 10.6791 55.4499 11.1062C55.5502 11.5298 55.5367 11.9415 55.4096 12.3413C55.2859 12.7403 55.0739 13.0862 54.7735 13.3792C54.4759 13.6678 54.1135 13.8626 53.6864 13.9637Z" fill="#111111"/>
</svg>
