<svg width="19" height="20" viewBox="0 0 19 20" fill="none" xmlns="http://www.w3.org/2000/svg">
<path d="M0.0125528 19.1681C0.4519 18.6409 0.891246 18.1262 1.34315 17.599C3.28882 15.3395 5.2345 13.0674 7.18018 10.8079C7.21784 10.7577 7.2555 10.7075 7.30571 10.6573C4.87047 7.11742 2.44779 3.57754 0 0.0125528C0.0753166 0.0125528 0.112975 0 0.163186 0C1.90802 0 3.66541 0 5.41024 0C5.53577 0 5.59853 0.0502111 5.6613 0.13808C7.20529 2.38503 8.73672 4.61942 10.2807 6.86636C10.3184 6.91658 10.356 6.97934 10.4062 7.0421C10.7201 6.67807 11.0339 6.31404 11.3351 5.96256C12.9921 4.04199 14.6491 2.12142 16.2935 0.188292C16.4065 0.0502111 16.532 0 16.7077 0C17.1596 0.0125528 17.6115 0 18.1136 0C15.7788 2.72395 13.4566 5.41024 11.1469 8.10909C11.1845 8.17185 11.2222 8.22206 11.2598 8.27227C13.7076 11.8373 16.1554 15.4148 18.6158 18.9798C18.6534 19.03 18.6785 19.0928 18.7162 19.1555C16.8584 19.1555 15.0006 19.1555 13.1427 19.1555C13.1176 19.1179 13.1051 19.0802 13.08 19.0425C11.423 16.6575 9.7786 14.2599 8.13419 11.8624C8.10909 11.8247 8.07143 11.787 8.03377 11.7368C7.97101 11.7996 7.92079 11.8624 7.88314 11.9126C6.55254 13.4566 5.22195 15.0006 3.90391 16.5445C3.1633 17.4107 2.41013 18.2894 1.66952 19.1555C1.10464 19.1681 0.552322 19.1681 0.0125528 19.1681ZM2.24694 1.24272C2.29716 1.31804 2.32226 1.36825 2.34737 1.40591C6.17596 6.87892 9.992 12.3519 13.8206 17.8375C13.8834 17.9379 13.9587 17.9756 14.0842 17.9756C14.8123 17.9756 15.5403 17.9756 16.2684 17.9756C16.3186 17.9756 16.3688 17.963 16.4441 17.963C16.3814 17.8751 16.3437 17.8124 16.306 17.7622C13.5068 13.7453 10.695 9.72839 7.89569 5.72406C6.89147 4.29305 5.88725 2.84948 4.88303 1.41846C4.83281 1.3557 4.74495 1.26783 4.68218 1.26783C3.8788 1.24272 3.08798 1.24272 2.24694 1.24272Z" fill="white"/>
</svg>
