<svg width="41" height="35" viewBox="0 0 41 35" fill="none" xmlns="http://www.w3.org/2000/svg">
<path d="M20.4559 34.9913C23.7553 34.9913 27.0635 34.9913 30.3629 35C30.6805 35 30.857 34.9046 31.0158 34.6359C34.2975 29.0352 37.5881 23.4431 40.8875 17.8511C41.0375 17.591 41.0375 17.409 40.8875 17.1489C37.5881 11.5568 34.2975 5.96483 31.0158 0.364132C30.857 0.0866981 30.6805 0 30.3629 0C23.7906 0.0086698 17.2182 0.0086698 10.6371 0C10.3195 0 10.143 0.0953679 9.98424 0.364132C6.70247 5.94749 3.41189 11.5482 0.11248 17.1402C-0.0374933 17.4003 -0.0374933 17.5824 0.11248 17.8425C3.41189 23.4345 6.70247 29.0265 9.98424 34.6272C10.143 34.9046 10.3195 35 10.6371 34.9913C13.91 34.9827 17.1829 34.9913 20.4559 34.9913Z" fill="#FFC600"/>
</svg>
